<svg width="40" height="40" viewBox="0 0 40 40" fill="none" xmlns="http://www.w3.org/2000/svg">
<path fill-rule="evenodd" clip-rule="evenodd" d="M20.2128 0C20.8003 0 21.2766 0.476293 21.2766 1.06383V19.1489H38.9362C39.5237 19.1489 40 19.6252 40 20.2128C40 20.8003 39.5237 21.2766 38.9362 21.2766H21.2766V38.9362C21.2766 39.5237 20.8003 40 20.2128 40C19.6252 40 19.1489 39.5237 19.1489 38.9362V21.2766H1.06383C0.476293 21.2766 0 20.8003 0 20.2128C0 19.6252 0.476293 19.1489 1.06383 19.1489H19.1489V1.06383C19.1489 0.476293 19.6252 0 20.2128 0Z" fill="#80e897"/>
</svg>
