<svg xmlns="http://www.w3.org/2000/svg" viewBox="0 0 144 144"><defs><style>.cls-1{fill:#fff;}</style></defs><g id="Layer_2" data-name="Layer 2"><g id="Layer_1-2" data-name="Layer 1"><path class="cls-1" d="M0,144V96.66C0,88,7.92,81,17.65,81h108.7C136.08,81,144,88,144,96.66V144ZM139.17,96.66c0-6.27-5.75-11.37-12.82-11.37H17.65c-7.07,0-12.82,5.1-12.82,11.37V139H139.17Z"/><path class="cls-1" d="M0,0V47.34C0,56,7.92,63,17.65,63h108.7C136.08,63,144,56,144,47.34V0ZM139.17,47.34c0,6.27-5.75,11.37-12.82,11.37H17.65c-7.07,0-12.82-5.1-12.82-11.37V5H139.17Z"/></g></g></svg>