<svg xmlns="http://www.w3.org/2000/svg" viewBox="0 0 143.77 143.94"><defs><style>.cls-1{fill:#fff;}</style></defs><g id="Layer_2" data-name="Layer 2"><g id="Layer_1-2" data-name="Layer 1"><path class="cls-1" d="M119.49,143.94H24.29A24.3,24.3,0,0,1,0,119.62V24.31A24.3,24.3,0,0,1,24.29,0h95.2a24.3,24.3,0,0,1,24.28,24.31v95.31A24.3,24.3,0,0,1,119.49,143.94ZM24.29,6.78A17.52,17.52,0,0,0,6.77,24.31v95.31a17.53,17.53,0,0,0,17.52,17.54h95.2A17.52,17.52,0,0,0,137,119.62V24.31A17.52,17.52,0,0,0,119.49,6.78Z"/><line class="cls-1" x1="26.77" y1="71.97" x2="116.77" y2="71.97"/><path class="cls-1" d="M116.77,77h-90a5,5,0,1,1,0-10h90a5,5,0,1,1,0,10Z"/><line class="cls-1" x1="35.77" y1="17.94" x2="53.77" y2="53.94"/><path class="cls-1" d="M53.78,58.94a5,5,0,0,1-4.48-2.77l-18-36a5,5,0,1,1,8.94-4.47l18,36a5,5,0,0,1-4.46,7.24Z"/><line class="cls-1" x1="53.77" y1="17.94" x2="71.77" y2="53.94"/><path class="cls-1" d="M71.78,58.94a5,5,0,0,1-4.48-2.77l-18-36a5,5,0,1,1,8.94-4.47l18,36a5,5,0,0,1-4.46,7.24Z"/><line class="cls-1" x1="31.65" y1="107.94" x2="71.9" y2="107.94"/><path class="cls-1" d="M71.9,112.94H31.65a5,5,0,0,1,0-10H71.9a5,5,0,0,1,0,10Z"/><line class="cls-1" x1="31.65" y1="125.94" x2="71.9" y2="125.94"/><path class="cls-1" d="M71.9,130.94H31.65a5,5,0,0,1,0-10H71.9a5,5,0,0,1,0,10Z"/><line class="cls-1" x1="89.77" y1="125.94" x2="90.06" y2="90.15"/><path class="cls-1" d="M89.77,130.94h0a5,5,0,0,1-5-5l.28-35.79a5,5,0,0,1,5-5h0a5,5,0,0,1,5,5L94.77,126A5,5,0,0,1,89.77,130.94Z"/><line class="cls-1" x1="107.77" y1="125.94" x2="108.04" y2="89.5"/><path class="cls-1" d="M107.77,130.94h0a5,5,0,0,1-5-5L103,89.46a5,5,0,1,1,10,.08L112.77,126A5,5,0,0,1,107.77,130.94Z"/><line class="cls-1" x1="71.77" y1="17.94" x2="89.77" y2="53.94"/><path class="cls-1" d="M89.78,58.94a5,5,0,0,1-4.48-2.77l-18-36a5,5,0,1,1,8.94-4.47l18,36a5,5,0,0,1-4.46,7.24Z"/></g></g></svg>