<svg xmlns="http://www.w3.org/2000/svg" viewBox="0 0 144 144"><defs><style>.cls-1{opacity:0.68;}.cls-2{fill:none;}.cls-3{fill:#ffd573;}</style></defs><g id="Layer_2" data-name="Layer 2"><g id="Layer_1-2" data-name="Layer 1"><g class="cls-1"><line class="cls-2" x1="141.58" y1="141.58" x2="73.71" y2="73.71"/><line class="cls-2" x1="70.3" y1="70.3" x2="2.42" y2="2.42"/><path class="cls-3" d="M143.29,139.88a2.41,2.41,0,1,1-3.41,3.41L72,75.41,4.12,143.29a2.41,2.41,0,0,1-3.41-3.41L68.59,72,.71,4.12A2.41,2.41,0,0,1,4.12.71L72,68.59,139.88.71a2.41,2.41,0,0,1,3.41,3.41L75.41,72Z"/></g><g class="cls-1"><line class="cls-2" x1="70.3" y1="73.71" x2="2.42" y2="141.58"/><line class="cls-2" x1="141.58" y1="2.42" x2="73.71" y2="70.3"/></g></g></g></svg>