<?xml version="1.0" encoding="utf-8"?>
<!-- Generator: Adobe Illustrator 25.2.0, SVG Export Plug-In . SVG Version: 6.00 Build 0)  -->
<svg version="1.1" id="Layer_1" xmlns="http://www.w3.org/2000/svg" xmlns:xlink="http://www.w3.org/1999/xlink" x="0px" y="0px"
	 viewBox="0 0 149 139.5" enable-background="new 0 0 149 139.5" xml:space="preserve">
<g id="Layer_2_1_">
	<g id="Layer_1-2">
		<path fill="#FFFFFF" d="M146.5,139.5H2.5c-1.4,0-2.5-1.1-2.5-2.5v-36c0-1.4,1.1-2.5,2.5-2.5S5,99.6,5,101v33.5h139V101
			c0-1.4,1.1-2.5,2.5-2.5s2.5,1.1,2.5,2.5v36C149,138.4,147.9,139.5,146.5,139.5z"/>
		<path fill="#FFFFFF" d="M21,54c0.7,0,1.3,0.3,1.8,0.7L75,107l52.2-52.3c1-1,2.6-1,3.5,0s1,2.6,0,3.5l-54,54c-1,1-2.6,1-3.5,0
			l-54-54c-1-1-1-2.6,0-3.5C19.7,54.3,20.3,54,21,54z"/>
		<path fill="#FFFFFF" d="M75,0c1.4,0,2.5,1.1,2.5,2.5v107c0,1.4-1.1,2.5-2.5,2.5s-2.5-1.1-2.5-2.5V2.5C72.5,1.1,73.6,0,75,0z"/>
	</g>
</g>
</svg>
