<svg xmlns="http://www.w3.org/2000/svg" viewBox="0 0 149 139.5"><defs><style>.cls-1{fill:#333;}</style></defs><g id="Layer_2" data-name="Layer 2"><g id="Layer_1-2" data-name="Layer 1"><path class="cls-1" d="M146.5,139.5H2.5A2.5,2.5,0,0,1,0,137V101a2.5,2.5,0,0,1,5,0v33.5H144V101a2.5,2.5,0,0,1,5,0v36A2.5,2.5,0,0,1,146.5,139.5Z"/><path class="cls-1" d="M129,59a2.49,2.49,0,0,1-1.77-.73L75,6,22.77,58.27a2.5,2.5,0,0,1-3.54-3.54l54-54a2.52,2.52,0,0,1,3.54,0l54,54a2.52,2.52,0,0,1,0,3.54A2.49,2.49,0,0,1,129,59Z"/><path class="cls-1" d="M75,113a2.5,2.5,0,0,1-2.5-2.5V3.5a2.5,2.5,0,0,1,5,0v107A2.5,2.5,0,0,1,75,113Z"/></g></g></svg>