<?xml version="1.0" encoding="utf-8"?>
<!-- Generator: Adobe Illustrator 25.2.0, SVG Export Plug-In . SVG Version: 6.00 Build 0)  -->
<svg version="1.1" id="Layer_1" xmlns="http://www.w3.org/2000/svg" xmlns:xlink="http://www.w3.org/1999/xlink" x="0px" y="0px"
	 viewBox="0 0 182 182" style="enable-background:new 0 0 182 182;" xml:space="preserve">
<style type="text/css">
	.st0{fill:#FFFFFF;}
</style>
<path class="st0" d="M80.9,4.5C80.6,4.7,80.3,4.9,80,5c-0.3,0.1-0.6,0.2-1,0.2l-73.9,0l0,73.9c0,0.7-0.3,1.3-0.7,1.8
	c-0.5,0.5-1.1,0.7-1.8,0.7s-1.3-0.3-1.8-0.7c-0.5-0.5-0.7-1.1-0.7-1.8l0-76.4c0-0.7,0.3-1.3,0.7-1.8c0.5-0.5,1.1-0.7,1.8-0.7l76.4,0
	c0.7,0,1.3,0.3,1.8,0.7c0.5,0.5,0.7,1.1,0.7,1.8c0,0.3-0.1,0.7-0.2,1C81.3,4,81.1,4.2,80.9,4.5z"/>
<path class="st0" d="M80.9,80.8c-0.5,0.5-1.1,0.7-1.8,0.7c-0.7,0-1.3-0.3-1.8-0.7L1.7,5.2C1.2,4.7,0.9,4.1,0.9,3.4s0.3-1.3,0.7-1.8
	s1.1-0.7,1.8-0.7s1.3,0.3,1.8,0.7l75.7,75.7c0.5,0.5,0.7,1.1,0.7,1.8C81.6,79.7,81.3,80.4,80.9,80.8z"/>
<path class="st0" d="M80.9,177.3c-0.2-0.2-0.5-0.4-0.8-0.5c-0.3-0.1-0.6-0.2-1-0.2l-73.9,0l0-73.9c0-0.7-0.3-1.3-0.7-1.8
	c-0.5-0.5-1.1-0.7-1.8-0.7s-1.3,0.3-1.8,0.7c-0.5,0.5-0.7,1.1-0.7,1.8l0,76.4c0,0.7,0.3,1.3,0.7,1.8c0.5,0.5,1.1,0.7,1.8,0.7h76.4
	c0.7,0,1.3-0.3,1.8-0.7c0.5-0.5,0.7-1.1,0.7-1.8c0-0.3-0.1-0.7-0.2-1C81.3,177.8,81.1,177.6,80.9,177.3z"/>
<path class="st0" d="M80.9,101c-0.5-0.5-1.1-0.7-1.8-0.7c-0.7,0-1.3,0.3-1.8,0.7L1.7,176.6c-0.5,0.5-0.7,1.1-0.7,1.8
	c0,0.7,0.3,1.3,0.7,1.8s1.1,0.7,1.8,0.7s1.3-0.3,1.8-0.7l75.7-75.7c0.5-0.5,0.7-1.1,0.7-1.8S81.3,101.4,80.9,101z"/>
<path class="st0" d="M100.9,4.5c0.2,0.2,0.5,0.4,0.8,0.5c0.3,0.1,0.6,0.2,1,0.2l73.9,0l0,73.9c0,0.7,0.3,1.3,0.7,1.8
	c0.5,0.5,1.1,0.7,1.8,0.7c0.7,0,1.3-0.3,1.8-0.7c0.5-0.5,0.7-1.1,0.7-1.8V2.7c0-0.7-0.3-1.3-0.7-1.8c-0.5-0.5-1.1-0.7-1.8-0.7
	l-76.4,0c-0.7,0-1.3,0.3-1.8,0.7c-0.5,0.5-0.7,1.1-0.7,1.8c0,0.3,0.1,0.7,0.2,1S100.7,4.3,100.9,4.5z"/>
<path class="st0" d="M100.9,80.8c0.5,0.5,1.1,0.7,1.8,0.7c0.7,0,1.3-0.3,1.8-0.7l75.7-75.7c0.5-0.5,0.7-1.1,0.7-1.8
	c0-0.7-0.3-1.3-0.7-1.8c-0.5-0.5-1.1-0.7-1.8-0.7c-0.7,0-1.3,0.3-1.8,0.7l-75.7,75.7c-0.5,0.5-0.7,1.1-0.7,1.8
	C100.2,79.7,100.5,80.4,100.9,80.8z"/>
<path class="st0" d="M101,177.3c0.2-0.2,0.5-0.4,0.8-0.5c0.3-0.1,0.6-0.2,1-0.2l73.9,0l0-73.9c0-0.7,0.3-1.3,0.7-1.8
	c0.5-0.5,1.1-0.7,1.8-0.7c0.7,0,1.3,0.3,1.8,0.7c0.5,0.5,0.7,1.1,0.7,1.8v76.4c0,0.7-0.3,1.3-0.7,1.8c-0.5,0.5-1.1,0.7-1.8,0.7
	h-76.4c-0.7,0-1.3-0.3-1.8-0.7c-0.5-0.5-0.7-1.1-0.7-1.8c0-0.3,0.1-0.7,0.2-1C100.5,177.8,100.7,177.6,101,177.3z"/>
<path class="st0" d="M101,101c0.5-0.5,1.1-0.7,1.8-0.7s1.3,0.3,1.8,0.7l75.7,75.7c0.5,0.5,0.7,1.1,0.7,1.8c0,0.7-0.3,1.3-0.7,1.8
	c-0.5,0.5-1.1,0.7-1.8,0.7c-0.7,0-1.3-0.3-1.8-0.7L101,104.5c-0.5-0.5-0.7-1.1-0.7-1.8S100.5,101.4,101,101z"/>
</svg>
