<svg xmlns="http://www.w3.org/2000/svg" viewBox="0 0 144 144"><defs><style>.cls-1{fill:#333;}</style></defs><g id="Layer_2" data-name="Layer 2"><g id="Layer_1-2" data-name="Layer 1"><path class="cls-1" d="M113.17,144H89a8.31,8.31,0,0,1-8.11-8.48v-37H63.07v37A8.31,8.31,0,0,1,55,144H30.83c-6.82,0-12.37-5.84-12.37-13V77.32H9.92a9.82,9.82,0,0,1-9-5.82A10.33,10.33,0,0,1,3.18,59.87L64.64,3.05A10.53,10.53,0,0,1,71.9,0a10.89,10.89,0,0,1,7.62,3.2l61.36,56.74a10.3,10.3,0,0,1,2.24,11.56,9.8,9.8,0,0,1-9,5.82h-8.54V131C125.54,138.16,120,144,113.17,144ZM62.52,93.7h19a4.37,4.37,0,0,1,4.3,4.42v37.4A3.48,3.48,0,0,0,89,139.17h24.13c4.15,0,7.52-3.68,7.52-8.19V72.49h13.39a4.93,4.93,0,0,0,4.59-2.91,5.47,5.47,0,0,0-1.17-6.19l-.11-.1L76.1,6.63a5.92,5.92,0,0,0-4.2-1.8,5.72,5.72,0,0,0-3.84,1.64L68,6.56,6.49,63.41a5.47,5.47,0,0,0-1.17,6.17,5,5,0,0,0,4.6,2.91H23.31V131c0,4.51,3.37,8.19,7.52,8.19H55a3.48,3.48,0,0,0,3.26-3.65V98.12A4.37,4.37,0,0,1,62.52,93.7Z"/></g></g></svg>