<svg xmlns="http://www.w3.org/2000/svg" viewBox="0 0 144 144"><defs><style>.cls-1{fill:#333;}</style></defs><g id="Layer_2" data-name="Layer 2"><g id="Layer_1-2" data-name="Layer 1"><path class="cls-1" d="M141.33,100.15A2.68,2.68,0,0,0,144,97.48V14.57C144,6.54,136.17,0,126.53,0H17.46C7.83,0,0,6.54,0,14.57v85.58c0,8,7.83,14.56,17.46,14.56h3.09l0,0L38.11,139.8a10.48,10.48,0,0,0,8.71,4.2,10.5,10.5,0,0,0,8.71-4.19l17.53-25.08,0,0h5.39A2.47,2.47,0,0,0,81,112.57,2.35,2.35,0,0,0,78.65,110H70.1l0,0L51,137.35a5.4,5.4,0,0,1-8.32,0L23.57,110l0,0H17.46c-6.68,0-12.12-4.42-12.12-9.86V14.57c0-5.44,5.44-9.87,12.12-9.87H126.53c6.69,0,12.13,4.43,12.13,9.87V97.48a2.68,2.68,0,0,0,2.67,2.67Z"/><line class="cls-1" x1="116.5" y1="86" x2="116.5" y2="140"/><rect class="cls-1" x="114" y="86" width="5" height="54" rx="2.5"/><line class="cls-1" x1="90" y1="112.5" x2="144" y2="112.5"/><rect class="cls-1" x="90" y="110" width="54" height="5" rx="2.5"/></g></g></svg>