<svg xmlns="http://www.w3.org/2000/svg" width="144" height="144" viewBox="0 0 144 144"><g id="Layer_2" data-name="Layer 2"><g id="Layer_1-2" data-name="Layer 1"><path d="M141.33,36a2.68,2.68,0,0,0-2.67,2.67v61.48c0,5.44-5.44,9.86-12.13,9.86H71.3a2.34,2.34,0,0,0-1.92,1L51,137.35a5.4,5.4,0,0,1-8.32,0L24.26,111a2.34,2.34,0,0,0-1.92-1H17.46c-6.68,0-12.12-4.42-12.12-9.86V14.57c0-5.44,5.44-9.87,12.12-9.87h88.19A2.35,2.35,0,0,0,108,2.35h0A2.35,2.35,0,0,0,105.65,0H17.46C7.83,0,0,6.54,0,14.57v85.58c0,8,7.83,14.56,17.46,14.56h3.11L38.11,139.8a10.48,10.48,0,0,0,8.71,4.2,10.5,10.5,0,0,0,8.71-4.19l17.54-25.1h53.46c9.64,0,17.47-6.53,17.47-14.56V38.67A2.68,2.68,0,0,0,141.33,36Z" fill="#80e897"/><path d="M83.3,54a2.36,2.36,0,0,1-1.73-.75,2.11,2.11,0,0,1-.4-2.27l7-16.34a2.18,2.18,0,0,1,.62-.82L126.26,2.63h0c3.21-2.67,9.83-4.62,15,1s2.2,11.56-1,14.23L102.77,49a2.2,2.2,0,0,1-.94.47L83.89,53.93A2.38,2.38,0,0,1,83.3,54Zm9-17.22-5.07,11.8,13-3.22,37-30.85c.74-.63,4.27-4,.57-8s-7.69-1.15-8.46-.53Z" fill="#80e897"/></g></g></svg>