<svg xmlns="http://www.w3.org/2000/svg" viewBox="0 0 144 144"><defs><style>.cls-1{fill:#333;}</style></defs><g id="Layer_2" data-name="Layer 2"><g id="Layer_1-2" data-name="Layer 1"><path class="cls-1" d="M46.82,144h0a10.48,10.48,0,0,1-8.71-4.2L20.57,114.71H17.46C7.83,114.71,0,108.18,0,100.15V14.57C0,6.54,7.83,0,17.46,0H126.53C136.17,0,144,6.54,144,14.57v85.58c0,8-7.83,14.56-17.47,14.56H73.07l-17.54,25.1A10.5,10.5,0,0,1,46.82,144ZM17.46,4.7c-6.68,0-12.12,4.43-12.12,9.87v85.58c0,5.44,5.44,9.86,12.12,9.86h6.1l19.1,27.33a5.4,5.4,0,0,0,8.32,0L70.08,110h56.45c6.69,0,12.13-4.42,12.13-9.86V14.57c0-5.44-5.44-9.87-12.13-9.87Z"/></g></g></svg>