<?xml version="1.0" encoding="utf-8"?>
<!-- Generator: Adobe Illustrator 25.2.0, SVG Export Plug-In . SVG Version: 6.00 Build 0)  -->
<svg version="1.1" id="Layer_1" xmlns="http://www.w3.org/2000/svg" xmlns:xlink="http://www.w3.org/1999/xlink" x="0px" y="0px"
	 viewBox="0 0 182 182" style="enable-background:new 0 0 182 182;" xml:space="preserve">
<style type="text/css">
	.st0{fill:#FFFFFF;}
</style>
<path class="st0" d="M0.9,77.3c0.2-0.2,0.5-0.4,0.8-0.5c0.3-0.1,0.6-0.2,1-0.2l73.9,0l0-73.9c0-0.7,0.3-1.3,0.7-1.8
	c0.5-0.5,1.1-0.7,1.8-0.7c0.7,0,1.3,0.3,1.8,0.7c0.5,0.5,0.7,1.1,0.7,1.8v76.4c0,0.7-0.3,1.3-0.7,1.8c-0.5,0.5-1.1,0.7-1.8,0.7H2.7
	c-0.7,0-1.3-0.3-1.8-0.7c-0.5-0.5-0.7-1.1-0.7-1.8c0-0.3,0.1-0.7,0.2-1C0.5,77.8,0.7,77.6,0.9,77.3z"/>
<path class="st0" d="M0.9,1c0.5-0.5,1.1-0.7,1.8-0.7S4,0.5,4.5,1l75.7,75.7c0.5,0.5,0.7,1.1,0.7,1.8c0,0.7-0.3,1.3-0.7,1.8
	c-0.5,0.5-1.1,0.7-1.8,0.7c-0.7,0-1.3-0.3-1.8-0.7L0.9,4.5C0.5,4,0.2,3.4,0.2,2.7S0.5,1.4,0.9,1z"/>
<path class="st0" d="M1,104.5c0.2,0.2,0.5,0.4,0.8,0.5s0.6,0.2,1,0.2l73.9,0l0,73.9c0,0.7,0.3,1.3,0.7,1.8c0.5,0.5,1.1,0.7,1.8,0.7
	s1.3-0.3,1.8-0.7c0.5-0.5,0.7-1.1,0.7-1.8v-76.4c0-0.7-0.3-1.3-0.7-1.8c-0.5-0.5-1.1-0.7-1.8-0.7H2.7c-0.7,0-1.3,0.3-1.8,0.7
	c-0.5,0.5-0.7,1.1-0.7,1.8c0,0.3,0.1,0.7,0.2,1S0.7,104.3,1,104.5z"/>
<path class="st0" d="M1,180.9c0.5,0.5,1.1,0.7,1.8,0.7s1.3-0.3,1.8-0.7l75.7-75.7c0.5-0.5,0.7-1.1,0.7-1.8s-0.3-1.3-0.7-1.8
	c-0.5-0.5-1.1-0.7-1.8-0.7c-0.7,0-1.3,0.3-1.8,0.7L1,177.3c-0.5,0.5-0.7,1.1-0.7,1.8C0.2,179.8,0.5,180.4,1,180.9z"/>
<path class="st0" d="M180.9,77.3c-0.2-0.2-0.5-0.4-0.8-0.5c-0.3-0.1-0.6-0.2-1-0.2l-73.9,0l0-73.9c0-0.7-0.3-1.3-0.7-1.8
	c-0.5-0.5-1.1-0.7-1.8-0.7c-0.7,0-1.3,0.3-1.8,0.7c-0.5,0.5-0.7,1.1-0.7,1.8v76.4c0,0.7,0.3,1.3,0.7,1.8c0.5,0.5,1.1,0.7,1.8,0.7
	h76.4c0.7,0,1.3-0.3,1.8-0.7c0.5-0.5,0.7-1.1,0.7-1.8c0-0.3-0.1-0.7-0.2-1C181.3,77.8,181.1,77.6,180.9,77.3z"/>
<path class="st0" d="M180.9,1c-0.5-0.5-1.1-0.7-1.8-0.7c-0.7,0-1.3,0.3-1.8,0.7l-75.7,75.7c-0.5,0.5-0.7,1.1-0.7,1.8
	c0,0.7,0.3,1.3,0.7,1.8c0.5,0.5,1.1,0.7,1.8,0.7s1.3-0.3,1.8-0.7l75.7-75.7c0.5-0.5,0.7-1.1,0.7-1.8S181.3,1.4,180.9,1z"/>
<path class="st0" d="M180.9,104.5c-0.2,0.2-0.5,0.4-0.8,0.5c-0.3,0.1-0.6,0.2-1,0.2l-73.9,0l0,73.9c0,0.7-0.3,1.3-0.7,1.8
	c-0.5,0.5-1.1,0.7-1.8,0.7c-0.7,0-1.3-0.3-1.8-0.7c-0.5-0.5-0.7-1.1-0.7-1.8v-76.4c0-0.7,0.3-1.3,0.7-1.8c0.5-0.5,1.1-0.7,1.8-0.7
	h76.4c0.7,0,1.3,0.3,1.8,0.7c0.5,0.5,0.7,1.1,0.7,1.8c0,0.3-0.1,0.7-0.2,1C181.3,104,181.1,104.3,180.9,104.5z"/>
<path class="st0" d="M180.9,180.9c-0.5,0.5-1.1,0.7-1.8,0.7c-0.7,0-1.3-0.3-1.8-0.7l-75.7-75.7c-0.5-0.5-0.7-1.1-0.7-1.8
	c0-0.7,0.3-1.3,0.7-1.8c0.5-0.5,1.1-0.7,1.8-0.7c0.7,0,1.3,0.3,1.8,0.7l75.7,75.7c0.5,0.5,0.7,1.1,0.7,1.8
	C181.6,179.7,181.3,180.4,180.9,180.9z"/>
</svg>
