<svg xmlns="http://www.w3.org/2000/svg" viewBox="0 0 145.14 144"><defs><style>.cls-1{fill:#333;}</style></defs><g id="Layer_2" data-name="Layer 2"><g id="Layer_1-2" data-name="Layer 1"><path class="cls-1" d="M70.64,144c-.86,0-1.73,0-2.59-.12a25.9,25.9,0,0,1-20.7-13.38,2.26,2.26,0,0,1,.2-2.44A2.7,2.7,0,0,1,50,127h.14c8.21.78,22.06,1.39,41.36-.06a2.7,2.7,0,0,1,2.37,1,2.26,2.26,0,0,1,.19,2.42C89.64,138.77,80.46,144,70.64,144ZM54.76,132.26a21.09,21.09,0,0,0,13.82,6.81,21.67,21.67,0,0,0,18.09-6.92A260.34,260.34,0,0,1,54.76,132.26ZM74.5,115.2H72.4c-20.49-.13-35-2.06-43.55-3.66-2.39-.44-4.63-.92-6.64-1.4C7.41,106.54-.07,100.26,0,91.47.09,78.93,5.58,74.66,13.18,68.76l2-1.56c4.61-3.63,6.83-7.48,6.91-19.53.11-15.06,4.69-26.91,13.61-35.23S57.45-.09,73.24,0s28.66,4.58,37.35,12.91,13.21,20.34,13.1,35.39c-.09,12.05,2.07,15.93,6.64,19.62l.12.1,1.85,1.49c7.5,6,12.93,10.34,12.84,22.88h0c-.07,8.78-7.64,15-22.49,18.37C115.3,112.44,99.43,115.2,74.5,115.2ZM72.77,4.83c-28.7,0-45.26,15.61-45.45,42.87-.1,13.78-3.16,18.78-8.77,23.19l-2,1.56C9.06,78.27,5.3,81.2,5.23,91.51c-.05,6.29,6.11,11,18.31,13.94,1.91.46,4.05.92,6.34,1.34,8.33,1.56,22.48,3.44,42.56,3.57,25.55.15,41.64-2.62,49-4.29,12.24-2.81,18.47-7.42,18.52-13.71.07-10.32-3.64-13.28-11-19.19l-2-1.59-.13-.12c-5.47-4.45-8.41-9.52-8.3-23.19.2-27.79-15.88-43.21-45.27-43.44Zm69.75,87.54h0Z"/></g></g></svg>