<svg xmlns="http://www.w3.org/2000/svg" viewBox="0 0 144 144"><defs><style>.cls-1{fill:#fff;}</style></defs><g id="Layer_2" data-name="Layer 2"><g id="Layer_1-2" data-name="Layer 1"><path class="cls-1" d="M126.35,144H17.65A17.67,17.67,0,0,1,0,126.35V17.65A17.67,17.67,0,0,1,17.65,0h108.7A17.67,17.67,0,0,1,144,17.65v108.7A17.67,17.67,0,0,1,126.35,144ZM17.65,4.83A12.83,12.83,0,0,0,4.83,17.65v108.7a12.83,12.83,0,0,0,12.82,12.82h108.7a12.83,12.83,0,0,0,12.82-12.82V17.65A12.83,12.83,0,0,0,126.35,4.83Z"/></g></g></svg>