<?xml version="1.0" encoding="utf-8"?>
<!-- Generator: Adobe Illustrator 25.2.0, SVG Export Plug-In . SVG Version: 6.00 Build 0)  -->
<svg version="1.1" id="Layer_1" xmlns="http://www.w3.org/2000/svg" xmlns:xlink="http://www.w3.org/1999/xlink" x="0px" y="0px"
	 viewBox="0 0 144.2 144" style="enable-background:new 0 0 144.2 144;" xml:space="preserve">
<style type="text/css">
	.st0{fill:#FFFFFF;}
</style>
<path class="st0" d="M140.2,80.9c-0.5-0.5-0.7-1.1-0.7-1.8l0.1-73.9L65.7,5.2c-1.4,0-2.5-1.1-2.5-2.5c0-1.4,1.1-2.5,2.5-2.5
	l76.4,0.1c1.4,0,2.5,1.1,2.5,2.5l-0.1,76.4c0,1.4-1.1,2.5-2.5,2.5C141.3,81.7,140.7,81.4,140.2,80.9z"/>
<path class="st0" d="M63.6,81.2c-1-1-1-2.6,0-3.5l76-75.9c1-1,2.6-1,3.5,0c1,1,1,2.6,0,3.5l-76,75.9C66.1,82.1,64.5,82.1,63.6,81.2z
	"/>
<path class="st0" d="M130.5,144H14.3c-7.7,0-13.9-6.3-13.9-14V14c0-7.7,6.2-14,13.9-14h30.3C46,0,47,1.1,47,2.4S46,4.8,44.6,4.8
	H14.3c-5,0-9.1,4.1-9.1,9.2v116c0,5.1,4.1,9.2,9.1,9.2h116.2c0.9,0,4-0.2,6.4-2.7c2.5-2.5,2.7-5.6,2.7-6.5V99.4
	c0-1.3,1.1-2.4,2.4-2.4s2.4,1.1,2.4,2.4V130c0,1.7-0.4,6.2-4.1,9.9C136.6,143.6,132.2,144,130.5,144z"/>
</svg>
