<?xml version="1.0" encoding="utf-8"?>
<!-- Generator: Adobe Illustrator 25.2.0, SVG Export Plug-In . SVG Version: 6.00 Build 0)  -->
<svg version="1.1" id="Layer_1" xmlns="http://www.w3.org/2000/svg" xmlns:xlink="http://www.w3.org/1999/xlink" x="0px" y="0px"
	 viewBox="0 0 144 144" style="enable-background:new 0 0 144 144;" xml:space="preserve">
<style type="text/css">
	.st0{fill:#FFD673;}
</style>
<g id="Layer_2_1_">
	<g id="Layer_1-2">
		<path class="st0" d="M127.6,144H16.4c-9,0-16.4-7.3-16.4-16.4V46.2c0-1.5,1.2-2.8,2.8-2.8h138.5c1.5,0,2.8,1.2,2.8,2.8v81.4
			C144,136.7,136.7,144,127.6,144z M4.8,48.3v79.3c0,6.4,5.2,11.5,11.6,11.5h111.2c6.4,0,11.5-5.2,11.5-11.6V48.3H4.8z"/>
		<path class="st0" d="M138.5,30.9H5.5c-3,0-5.5-2.5-5.5-5.5V19c0-3,2.5-5.5,5.5-5.5l0,0h47c0.4,0,0.7-0.3,0.7-0.7c0,0,0,0,0,0V5.5
			c0-3,2.5-5.5,5.5-5.5h27.6c3,0,5.5,2.5,5.5,5.5c0,0,0,0,0,0v7.3c0,0.4,0.3,0.7,0.7,0.7l0,0h46c3,0,5.5,2.4,5.5,5.5v6.4
			C144,28.4,141.6,30.9,138.5,30.9C138.5,30.9,138.5,30.9,138.5,30.9z M5.5,18.4c-0.4,0-0.7,0.3-0.7,0.7v6.4c0,0.4,0.3,0.7,0.7,0.7
			h133c0.4,0,0.7-0.3,0.7-0.7V19c0-0.4-0.3-0.7-0.7-0.7h-46c-3,0-5.5-2.4-5.5-5.5V5.5c0-0.4-0.3-0.7-0.7-0.7l0,0H58.7
			c-0.4,0-0.7,0.3-0.7,0.7v7.3c0,3-2.5,5.5-5.5,5.5H5.5z"/>
		<path class="st0" d="M45,74.2v40.5"/>
		<path class="st0" d="M45,117c-1.3,0.1-2.4-0.9-2.5-2.2V74.2c0.1-1.4,1.3-2.4,2.7-2.3c1.2,0.1,2.2,1.1,2.3,2.3v40.5
			C47.4,116.1,46.3,117.1,45,117z"/>
		<path class="st0" d="M72,74.2v40.5"/>
		<path class="st0" d="M72,117c-1.3,0.1-2.4-0.9-2.5-2.2V74.2c0.1-1.4,1.3-2.4,2.7-2.3c1.2,0.1,2.2,1.1,2.3,2.3v40.5
			C74.4,116.1,73.3,117.1,72,117z"/>
		<path class="st0" d="M99,74.2v40.5"/>
		<path class="st0" d="M99,117c-1.3,0.1-2.4-0.9-2.5-2.2V74.2c0.1-1.4,1.3-2.4,2.7-2.3c1.2,0.1,2.2,1.1,2.3,2.3v40.5
			C101.4,116.1,100.3,117.1,99,117z"/>
	</g>
</g>
</svg>
