<?xml version="1.0" encoding="utf-8"?>
<!-- Generator: Adobe Illustrator 25.2.0, SVG Export Plug-In . SVG Version: 6.00 Build 0)  -->
<svg version="1.1" id="Layer_1" xmlns="http://www.w3.org/2000/svg" xmlns:xlink="http://www.w3.org/1999/xlink" x="0px" y="0px"
	 viewBox="0 0 144 144" style="enable-background:new 0 0 144 144;" xml:space="preserve">
<style type="text/css">
	.st0{fill:#FFD673;}
</style>
<g id="Layer_2_1_">
	<g id="Layer_1-2">
		<path class="st0" d="M120.6,144H23.3C15.5,144,9,136.7,9,127.6V46.2c0-1.5,1-2.8,2.4-2.8h121.1c1.3,0,2.4,1.2,2.4,2.8v81.4
			C134.9,136.7,128.5,144,120.6,144z M13.2,48.3v79.3c0,6.4,4.5,11.5,10.1,11.5h97.2c5.6,0,10.1-5.2,10.1-11.6V48.3H13.2z"/>
		<path class="st0" d="M138.5,30.9H5.5c-3,0-5.5-2.5-5.5-5.5V19c0-3,2.5-5.5,5.5-5.5l0,0h47c0.4,0,0.7-0.3,0.7-0.7l0,0V5.5
			c0-3,2.5-5.5,5.5-5.5h27.6c3,0,5.5,2.5,5.5,5.5l0,0v7.3c0,0.4,0.3,0.7,0.7,0.7l0,0h46c3,0,5.5,2.4,5.5,5.5v6.4
			C144,28.4,141.6,30.9,138.5,30.9L138.5,30.9z M5.5,18.4c-0.4,0-0.7,0.3-0.7,0.7v6.4c0,0.4,0.3,0.7,0.7,0.7h133
			c0.4,0,0.7-0.3,0.7-0.7V19c0-0.4-0.3-0.7-0.7-0.7h-46c-3,0-5.5-2.4-5.5-5.5V5.5c0-0.4-0.3-0.7-0.7-0.7l0,0H58.7
			c-0.4,0-0.7,0.3-0.7,0.7v7.3c0,3-2.5,5.5-5.5,5.5h-47V18.4z"/>
		<path class="st0" d="M45,74.2v40.5"/>
		<path class="st0" d="M45,117c-1.3,0.1-2.4-0.9-2.5-2.2V74.2c0.1-1.4,1.3-2.4,2.7-2.3c1.2,0.1,2.2,1.1,2.3,2.3v40.5
			C47.4,116.1,46.3,117.1,45,117z"/>
		<path class="st0" d="M72,74.2v40.5"/>
		<path class="st0" d="M72,117c-1.3,0.1-2.4-0.9-2.5-2.2V74.2c0.1-1.4,1.3-2.4,2.7-2.3c1.2,0.1,2.2,1.1,2.3,2.3v40.5
			C74.4,116.1,73.3,117.1,72,117z"/>
		<path class="st0" d="M99,74.2v40.5"/>
		<path class="st0" d="M99,117c-1.3,0.1-2.4-0.9-2.5-2.2V74.2c0.1-1.4,1.3-2.4,2.7-2.3c1.2,0.1,2.2,1.1,2.3,2.3v40.5
			C101.4,116.1,100.3,117.1,99,117z"/>
	</g>
</g>
</svg>
