<?xml version="1.0" encoding="utf-8"?>
<!-- Generator: Adobe Illustrator 25.2.0, SVG Export Plug-In . SVG Version: 6.00 Build 0)  -->
<svg version="1.1" id="Layer_1" xmlns="http://www.w3.org/2000/svg" xmlns:xlink="http://www.w3.org/1999/xlink" x="0px" y="0px"
	 viewBox="0 0 144 144" style="enable-background:new 0 0 144 144;" xml:space="preserve">
<style type="text/css">
	.st0{fill:#FFFFFF;}
</style>
<g id="Layer_2_1_">
	<g id="Layer_1-2">
		<path class="st0" d="M144,144h-0.4c0.1,0,0.2,0,0.3-0.1L144,144z"/>
		<path class="st0" d="M72,144c-39.8,0-72-32.2-72-72S32.2,0,72,0s72,32.2,72,72C144,111.7,111.7,144,72,144z M72,4.8
			C34.9,4.8,4.8,34.9,4.8,72s30.1,67.2,67.2,67.2s67.2-30.1,67.2-67.2C139.1,34.9,109.1,4.9,72,4.8z"/>
		<path class="st0" d="M103.8,133c-1.4-8.6-2.8-17.2-4.2-25.8l-3.1-19.3c-0.1-0.8-0.2-1.6-0.3-2.4c-0.2-2.2-0.7-4.3-1.5-6.3
			C93.2,76,90,74,86.5,73.9h-19c-1.1,0-2.3,0-3.4-0.1c-4.6-0.2-8.9-0.3-12,2.3c-2.6,2.2-3,5-3.6,8.5c-0.1,0.6-0.2,1.2-0.3,1.8
			l-0.2,1c-0.4,2.3-0.9,4.7-1.3,7c-1.7,9.1-3.3,18.2-4.9,27.2c-0.7,3.7-1.3,7.5-2,11.2l-4.7-0.9c0.7-3.7,1.3-7.5,2-11.2
			c1.6-9.1,3.3-18.1,4.9-27.2c0.4-2.3,0.8-4.7,1.3-7l0.2-1c0.1-0.6,0.2-1.1,0.3-1.7c0.7-4,1.3-8.1,5.3-11.4
			c4.5-3.8,10.2-3.6,15.3-3.4c1.1,0,2.2,0.1,3.2,0.1h19c5.4,0,10.3,3.2,12.5,8.1c1,2.4,1.6,5,1.9,7.7c0.1,0.7,0.2,1.5,0.3,2.2
			l3.2,19.3c1.4,8.6,2.8,17.2,4.2,25.8L103.8,133z"/>
		<path class="st0" d="M72.5,73.9c-10.9,0-19.8-8.9-19.8-19.8s8.9-19.8,19.8-19.8c10.9,0,19.8,8.9,19.8,19.8
			C92.3,65.1,83.4,73.9,72.5,73.9z M72.5,39.1c-8.3,0-15,6.7-15,15s6.7,15,15,15s15-6.7,15-15S80.8,39.1,72.5,39.1z"/>
	</g>
</g>
</svg>
