<svg xmlns="http://www.w3.org/2000/svg" viewBox="0 0 3436.89 5000"><defs><style>.cls-1{fill:#1f1f1f;}.cls-2{fill:#fdd574;}.cls-3{fill:#7ee797;}.cls-10,.cls-4{fill:#231f20;}.cls-4{opacity:0.3;}.cls-5,.cls-6{fill:#fff;}.cls-5{opacity:0.1;}.cls-7{fill:#fef3d4;}.cls-8{fill:#50bf7c;}.cls-9{fill:#3acf8a;}.cls-10{opacity:0.15;}.cls-11{fill:#fdd46c;}.cls-12{fill:#80e897;}.cls-13{fill:#7fe799;}.cls-14{fill:#fee9b9;}.cls-15{fill:#fdd57a;}.cls-16{fill:#00e796;}.cls-17{fill:#fdd877;}.cls-18{fill:#fcd558;}.cls-19{fill:#36a86a;}.cls-20{fill:#c4c4c4;}.cls-21{fill:#d2c474;}.cls-22{fill:#fdd675;}.cls-23{fill:#c2c3c4;}.cls-24{fill:#f8fffa;}.cls-25{fill:#00c27c;}.cls-26{fill:#e4bd75;}.cls-27{fill:#83e79a;}.cls-28{fill:#fdd579;}.cls-29{fill:#33e594;}.cls-30{fill:#90c472;}.cls-31{fill:#f7ce72;}</style></defs><g id="Layer_2" data-name="Layer 2"><g id="Layer_1-2" data-name="Layer 1"><rect class="cls-1" width="3436.89" height="5000"/><rect class="cls-2" x="1460.86" y="4112.65" width="75.44" height="743.71"/><rect class="cls-3" x="1490.08" y="4107.75" width="17.01" height="75.44" transform="translate(5644.06 2646.89) rotate(90)"/><rect class="cls-4" x="1460.86" y="4112.65" width="16.26" height="743.71"/><rect class="cls-5" x="1520.04" y="4112.65" width="16.26" height="743.71"/><path class="cls-3" d="M3408.29,4825.39l-194.08-665.58a7.81,7.81,0,0,0-9.54-5.55h0a7.82,7.82,0,0,0-5.07,9.81l194.08,665.58a7.82,7.82,0,0,0,9.54,5.55h0A7.81,7.81,0,0,0,3408.29,4825.39Z"/><path class="cls-3" d="M3336.66,4846.27,3142.58,4180.7A7.62,7.62,0,1,0,3128,4185l194.08,665.57a7.62,7.62,0,1,0,14.61-4.26Z"/><rect class="cls-6" x="3238.43" y="4174.6" width="59.4" height="661.15" transform="translate(-1130.49 1094.99) rotate(-16.26)"/><rect class="cls-7" x="3286.09" y="4168.78" width="4.02" height="661.15" transform="translate(-1128.07 1100.36) rotate(-16.26)"/><rect class="cls-7" x="3276.11" y="4171.69" width="4.02" height="661.15" transform="matrix(0.96, -0.28, 0.28, 0.96, -1129.26, 1097.65)"/><rect class="cls-7" x="3266.12" y="4174.6" width="4.02" height="661.15" transform="matrix(0.96, -0.28, 0.28, 0.96, -1130.48, 1094.97)"/><rect class="cls-7" x="3256.14" y="4177.51" width="4.02" height="661.15" transform="matrix(0.96, -0.28, 0.28, 0.96, -1131.69, 1092.29)"/><rect class="cls-7" x="3246.15" y="4180.42" width="4.02" height="661.15" transform="translate(-1132.91 1089.61) rotate(-16.26)"/><path class="cls-2" d="M2752.25,4850v-726.9c0-4.64-1.92-6.39-4.29-6.39h0c-2.36,0-4.28,1.75-4.28,6.39V4850c0,4.63,1.92,6.38,4.28,6.38h0C2750.33,4856.37,2752.25,4854.62,2752.25,4850Z"/><path class="cls-2" d="M2710.22,4850v-726.9c0-4.64-1.92-6.39-4.29-6.39s-4.29,1.75-4.29,6.39V4850c0,4.63,1.92,6.38,4.29,6.38S2710.22,4854.62,2710.22,4850Z"/><rect class="cls-6" x="2710.22" y="4139.94" width="33.46" height="693.2"/><rect class="cls-7" x="2737.54" y="4139.94" width="2.26" height="693.2"/><rect class="cls-7" x="2731.68" y="4139.94" width="2.26" height="693.2"/><rect class="cls-7" x="2725.82" y="4139.94" width="2.26" height="693.2"/><rect class="cls-7" x="2719.96" y="4139.94" width="2.26" height="693.2"/><rect class="cls-7" x="2714.1" y="4139.94" width="2.26" height="693.2"/><path class="cls-2" d="M1995,4850v-726.9c0-4.63-1.92-6.39-4.29-6.39h0c-2.36,0-4.28,1.76-4.28,6.39V4850c0,4.63,1.92,6.39,4.28,6.39h0C1993.1,4856.37,1995,4854.61,1995,4850Z"/><path class="cls-2" d="M1953,4850v-726.9c0-4.63-1.92-6.39-4.29-6.39s-4.28,1.76-4.28,6.39V4850c0,4.63,1.91,6.39,4.28,6.39S1953,4854.61,1953,4850Z"/><rect class="cls-6" x="1952.99" y="4139.93" width="33.46" height="693.2"/><rect class="cls-7" x="1980.31" y="4139.93" width="2.26" height="693.2"/><rect class="cls-7" x="1974.45" y="4139.93" width="2.26" height="693.2"/><rect class="cls-7" x="1968.59" y="4139.93" width="2.26" height="693.2"/><rect class="cls-7" x="1962.73" y="4139.93" width="2.26" height="693.2"/><rect class="cls-7" x="1956.87" y="4139.93" width="2.26" height="693.2"/><path class="cls-8" d="M1444.53,4849.73V4274.57c0-3.67-4.65-6.64-10.38-6.64h0c-5.74,0-10.39,3-10.39,6.64v575.16c0,3.67,4.65,6.64,10.39,6.64h0C1439.88,4856.37,1444.53,4853.4,1444.53,4849.73Z"/><path class="cls-8" d="M1235.84,4849.73V4274.57c0-3.67-4.65-6.64-10.38-6.64s-10.38,3-10.38,6.64v575.16c0,3.67,4.64,6.64,10.38,6.64S1235.84,4853.4,1235.84,4849.73Z"/><rect class="cls-6" x="1235.84" y="4287.9" width="187.92" height="548.5"/><rect class="cls-7" x="1411.63" y="4287.9" width="5.49" height="548.5"/><rect class="cls-7" x="1397.43" y="4287.9" width="5.49" height="548.5"/><rect class="cls-7" x="1383.24" y="4287.9" width="5.49" height="548.5"/><rect class="cls-7" x="1369.05" y="4287.9" width="5.49" height="548.5"/><rect class="cls-7" x="1354.85" y="4287.9" width="5.49" height="548.5"/><rect class="cls-7" x="1340.66" y="4287.9" width="5.49" height="548.5"/><rect class="cls-7" x="1326.47" y="4287.9" width="5.49" height="548.5"/><rect class="cls-7" x="1312.27" y="4287.9" width="5.49" height="548.5"/><rect class="cls-7" x="1298.08" y="4287.9" width="5.49" height="548.5"/><rect class="cls-7" x="1283.89" y="4287.9" width="5.49" height="548.5"/><rect class="cls-7" x="1269.69" y="4287.9" width="5.49" height="548.5"/><rect class="cls-7" x="1255.5" y="4287.9" width="5.49" height="548.5"/><rect class="cls-7" x="1241.31" y="4287.9" width="5.49" height="548.5"/><path class="cls-2" d="M2900.33,4848.74V4187.06c0-4.22-2.67-7.64-6-7.64h0c-3.29,0-6,3.42-6,7.64v661.68c0,4.22,2.67,7.63,6,7.63h0C2897.66,4856.37,2900.33,4853,2900.33,4848.74Z"/><path class="cls-2" d="M2780.51,4848.74V4187.06c0-4.22-2.67-7.64-6-7.64s-6,3.42-6,7.64v661.68c0,4.22,2.67,7.63,6,7.63S2780.51,4853,2780.51,4848.74Z"/><rect class="cls-6" x="2780.51" y="4202.4" width="107.9" height="631"/><rect class="cls-7" x="2881.44" y="4202.4" width="3.15" height="631"/><rect class="cls-7" x="2873.29" y="4202.4" width="3.15" height="631"/><rect class="cls-7" x="2865.14" y="4202.4" width="3.15" height="631"/><rect class="cls-7" x="2856.99" y="4202.4" width="3.15" height="631"/><rect class="cls-7" x="2848.84" y="4202.4" width="3.15" height="631"/><rect class="cls-7" x="2840.69" y="4202.4" width="3.15" height="631"/><rect class="cls-7" x="2832.54" y="4202.4" width="3.15" height="631"/><rect class="cls-7" x="2824.39" y="4202.4" width="3.15" height="631"/><rect class="cls-7" x="2816.24" y="4202.4" width="3.15" height="631"/><rect class="cls-7" x="2808.09" y="4202.4" width="3.15" height="631"/><rect class="cls-7" x="2799.94" y="4202.4" width="3.15" height="631"/><rect class="cls-7" x="2791.79" y="4202.4" width="3.15" height="631"/><rect class="cls-7" x="2783.64" y="4202.4" width="3.15" height="631"/><path class="cls-2" d="M1928.06,4848.73V4187.05a7.52,7.52,0,0,0-7.39-7.63h0a7.52,7.52,0,0,0-7.39,7.63v661.68a7.52,7.52,0,0,0,7.39,7.64h0A7.52,7.52,0,0,0,1928.06,4848.73Z"/><path class="cls-2" d="M1779.52,4848.73V4187.05a7.39,7.39,0,1,0-14.78,0v661.68a7.39,7.39,0,1,0,14.78,0Z"/><rect class="cls-6" x="1779.52" y="4202.39" width="133.75" height="631"/><rect class="cls-7" x="1904.64" y="4202.39" width="3.9" height="631"/><rect class="cls-7" x="1894.54" y="4202.39" width="3.9" height="631"/><rect class="cls-7" x="1884.43" y="4202.39" width="3.9" height="631"/><rect class="cls-7" x="1874.33" y="4202.39" width="3.9" height="631"/><rect class="cls-7" x="1864.23" y="4202.39" width="3.9" height="631"/><rect class="cls-7" x="1854.13" y="4202.39" width="3.9" height="631"/><rect class="cls-7" x="1844.02" y="4202.39" width="3.9" height="631"/><rect class="cls-7" x="1833.92" y="4202.39" width="3.9" height="631"/><rect class="cls-7" x="1823.82" y="4202.39" width="3.9" height="631"/><rect class="cls-7" x="1813.72" y="4202.39" width="3.9" height="631"/><rect class="cls-7" x="1803.62" y="4202.39" width="3.9" height="631"/><rect class="cls-7" x="1793.51" y="4202.39" width="3.9" height="631"/><rect class="cls-7" x="1783.41" y="4202.39" width="3.9" height="631"/><rect class="cls-2" x="2916.66" y="4139.9" width="211" height="716.47"/><rect class="cls-9" x="3007" y="4141.85" width="30.32" height="211" transform="translate(7269.51 1225.19) rotate(90)"/><rect class="cls-9" x="3007" y="4201.95" width="30.32" height="211" transform="translate(7329.61 1285.29) rotate(90)"/><rect class="cls-5" x="3095.55" y="4139.9" width="32.11" height="716.47"/><rect class="cls-10" x="2916.66" y="4139.9" width="32.11" height="716.47"/><rect class="cls-11" x="2167.2" y="4139.9" width="195.77" height="716.47"/><rect class="cls-2" x="2249.92" y="4651.04" width="30.32" height="195.77" transform="translate(7014.01 2483.84) rotate(90)"/><rect class="cls-2" x="2249.92" y="4149.46" width="30.32" height="195.77" transform="translate(6512.42 1982.26) rotate(90)"/><rect class="cls-5" x="2333.18" y="4139.9" width="29.79" height="716.47"/><rect class="cls-10" x="2167.2" y="4139.9" width="29.79" height="716.47"/><rect class="cls-3" x="1552.64" y="4139.9" width="195.77" height="716.47"/><rect class="cls-2" x="1635.37" y="4651.04" width="30.32" height="195.77" transform="translate(6399.45 3098.4) rotate(90)"/><rect class="cls-2" x="1635.37" y="4149.46" width="30.32" height="195.77" transform="translate(5897.87 2596.82) rotate(90)"/><rect class="cls-5" x="1718.62" y="4139.9" width="29.79" height="716.47"/><rect class="cls-10" x="1552.64" y="4139.9" width="29.79" height="716.47"/><rect class="cls-2" x="1619.77" y="4300.79" width="61.5" height="398.98"/><rect class="cls-2" x="2379.3" y="4270.21" width="195.77" height="586.16"/><rect class="cls-12" x="2464.78" y="4670.59" width="24.8" height="195.77" transform="translate(7245.65 2291.28) rotate(90)"/><rect class="cls-12" x="2464.78" y="4260.23" width="24.8" height="195.77" transform="translate(6835.3 1880.93) rotate(90)"/><rect class="cls-5" x="2545.28" y="4270.21" width="29.79" height="586.16"/><rect class="cls-10" x="2379.3" y="4270.21" width="29.79" height="586.16"/><rect class="cls-2" x="841.87" y="4500.92" width="571.38" height="139.51" transform="translate(-3443.12 5698.24) rotate(-90)"/><rect class="cls-6" x="1116.78" y="4291.66" width="21.56" height="139.51" transform="translate(-3233.85 5488.98) rotate(-90)"/><rect class="cls-6" x="1116.78" y="4691.19" width="21.56" height="139.51" transform="translate(-3633.38 5888.51) rotate(-90)"/><rect class="cls-6" x="1116.78" y="4733.94" width="21.56" height="139.51" transform="translate(-3676.14 5931.26) rotate(-90)"/><rect class="cls-5" x="901.01" y="4560.06" width="571.38" height="21.23" transform="translate(5757.38 3383.97) rotate(90)"/><rect class="cls-10" x="782.73" y="4560.06" width="571.38" height="21.23" transform="translate(5639.1 3502.26) rotate(90)"/><rect class="cls-11" x="1733.19" y="4438.69" width="695.84" height="139.51" transform="translate(-2427.34 6589.56) rotate(-90)"/><rect class="cls-3" x="2067.98" y="4183.84" width="26.26" height="139.51" transform="translate(-2172.49 6334.71) rotate(-90)"/><rect class="cls-3" x="2067.98" y="4618.34" width="26.26" height="139.51" transform="translate(-2606.98 6769.2) rotate(-90)"/><rect class="cls-2" x="2067.98" y="4566.27" width="26.26" height="139.51" transform="translate(-2554.92 6717.14) rotate(-90)"/><rect class="cls-2" x="2067.98" y="4670.4" width="26.26" height="139.51" transform="translate(-2659.05 6821.27) rotate(-90)"/><rect class="cls-3" x="2067.98" y="4722.47" width="26.26" height="139.51" transform="translate(-2711.12 6873.34) rotate(-90)"/><rect class="cls-5" x="1792.33" y="4497.83" width="695.84" height="21.23" transform="translate(6648.7 2368.2) rotate(90)"/><rect class="cls-10" x="1674.05" y="4497.83" width="695.84" height="21.23" transform="translate(6530.42 2486.48) rotate(90)"/><circle class="cls-6" cx="2081.11" cy="4330.42" r="30"/><rect class="cls-13" x="2591.98" y="4152.13" width="93.33" height="704.25"/><rect class="cls-8" x="2591.98" y="4339.68" width="93.33" height="329.14"/><rect class="cls-5" x="2667.43" y="4152.13" width="17.89" height="704.25"/><rect class="cls-10" x="2591.98" y="4152.13" width="17.89" height="704.25"/><rect class="cls-14" y="831.7" width="3436.89" height="143.63"/><rect class="cls-14" y="1837.87" width="3436.89" height="143.63"/><rect class="cls-14" y="2844.04" width="3436.89" height="143.63"/><rect class="cls-14" y="3850.2" width="3436.89" height="143.63"/><rect class="cls-14" y="4856.37" width="3436.89" height="143.63"/><rect class="cls-2" x="1084.71" y="1094.15" width="75.44" height="743.71"/><rect class="cls-3" x="1113.93" y="1089.24" width="17.01" height="75.44" transform="translate(2249.4 4.53) rotate(90)"/><rect class="cls-4" x="1084.71" y="1094.15" width="16.26" height="743.71"/><rect class="cls-5" x="1143.89" y="1094.15" width="16.26" height="743.71"/><rect class="cls-15" x="3365.11" y="3106.49" width="50.61" height="743.71"/><rect class="cls-3" x="3381.9" y="3114" width="17.01" height="50.61" transform="translate(6529.71 -251.11) rotate(90)"/><rect class="cls-3" x="3381.9" y="3788.85" width="17.01" height="50.61" transform="translate(7204.56 423.74) rotate(90)"/><rect class="cls-4" x="3365.11" y="3106.49" width="10.91" height="743.71"/><rect class="cls-5" x="3404.8" y="3106.49" width="10.91" height="743.71"/><rect class="cls-15" x="3256.76" y="2100.32" width="50.61" height="743.71"/><rect class="cls-3" x="3273.56" y="2107.83" width="17.01" height="50.61" transform="translate(5415.2 -1148.93) rotate(90)"/><rect class="cls-3" x="3273.56" y="2782.68" width="17.01" height="50.61" transform="translate(6090.05 -474.08) rotate(90)"/><rect class="cls-4" x="3256.76" y="2100.32" width="10.91" height="743.71"/><rect class="cls-5" x="3296.46" y="2100.32" width="10.91" height="743.71"/><rect class="cls-2" x="3324.21" y="2100.32" width="50.61" height="743.71"/><rect class="cls-3" x="3341.01" y="2107.83" width="17.01" height="50.61" transform="translate(5482.65 -1216.38) rotate(90)"/><rect class="cls-3" x="3341.01" y="2782.68" width="17.01" height="50.61" transform="translate(6157.5 -541.53) rotate(90)"/><rect class="cls-4" x="3324.21" y="2100.32" width="10.91" height="743.71"/><rect class="cls-5" x="3363.91" y="2100.32" width="10.91" height="743.71"/><rect class="cls-2" x="2533.98" y="1094.15" width="75.44" height="743.71"/><rect class="cls-3" x="2563.19" y="1089.24" width="17.01" height="75.44" transform="translate(3698.66 -1444.73) rotate(90)"/><rect class="cls-4" x="2533.97" y="1094.15" width="16.26" height="743.71"/><rect class="cls-5" x="2593.16" y="1094.15" width="16.26" height="743.71"/><rect class="cls-2" x="2467.04" y="1094.15" width="50.61" height="743.71"/><rect class="cls-3" x="2483.83" y="1101.66" width="17.01" height="50.61" transform="translate(3619.3 -1365.37) rotate(90)"/><rect class="cls-3" x="2483.83" y="1776.51" width="17.01" height="50.61" transform="translate(4294.15 -690.53) rotate(90)"/><rect class="cls-4" x="2467.04" y="1094.15" width="10.91" height="743.71"/><rect class="cls-5" x="2506.73" y="1094.15" width="10.91" height="743.71"/><path class="cls-2" d="M3159,1829.87V1136.58c0-4.42-5-8-11.14-8h0c-6.15,0-11.13,3.58-11.13,8v693.29c0,4.41,5,8,11.13,8h0C3154,1837.86,3159,1834.28,3159,1829.87Z"/><path class="cls-2" d="M3049.8,1829.87V1136.58c0-4.42-5-8-11.13-8s-11.13,3.58-11.13,8v693.29c0,4.41,5,8,11.13,8S3049.8,1834.28,3049.8,1829.87Z"/><rect class="cls-6" x="3049.8" y="1152.65" width="86.9" height="661.15"/><rect class="cls-7" x="3120.75" y="1152.65" width="5.88" height="661.15"/><rect class="cls-7" x="3105.53" y="1152.65" width="5.88" height="661.15"/><rect class="cls-7" x="3090.31" y="1152.65" width="5.88" height="661.15"/><rect class="cls-7" x="3075.1" y="1152.65" width="5.88" height="661.15"/><rect class="cls-7" x="3059.88" y="1152.65" width="5.88" height="661.15"/><path class="cls-2" d="M3022.37,2836V2142.74c0-4.41-5-8-11.13-8h0c-6.15,0-11.13,3.59-11.13,8V2836c0,4.42,5,8,11.13,8h0C3017.39,2844,3022.37,2840.45,3022.37,2836Z"/><path class="cls-2" d="M2913.21,2836V2142.74c0-4.41-5-8-11.13-8s-11.14,3.59-11.14,8V2836c0,4.42,5,8,11.14,8S2913.21,2840.45,2913.21,2836Z"/><rect class="cls-6" x="2913.21" y="2158.82" width="86.9" height="661.15"/><rect class="cls-7" x="2984.15" y="2158.82" width="5.88" height="661.15"/><rect class="cls-7" x="2968.94" y="2158.82" width="5.88" height="661.15"/><rect class="cls-7" x="2953.72" y="2158.82" width="5.88" height="661.15"/><rect class="cls-7" x="2938.5" y="2158.82" width="5.88" height="661.15"/><rect class="cls-7" x="2923.29" y="2158.82" width="5.88" height="661.15"/><path class="cls-16" d="M359.09,3841.89V3121.55c0-4.59-4.11-8.31-9.17-8.31h0c-5.06,0-9.16,3.72-9.16,8.31v720.34c0,4.59,4.1,8.31,9.16,8.31h0C355,3850.2,359.09,3846.48,359.09,3841.89Z"/><path class="cls-16" d="M175,3841.89V3121.55c0-4.59-4.1-8.31-9.16-8.31s-9.16,3.72-9.16,8.31v720.34c0,4.59,4.1,8.31,9.16,8.31S175,3846.48,175,3841.89Z"/><rect class="cls-6" x="174.96" y="3138.25" width="165.8" height="686.94"/><rect class="cls-7" x="330.06" y="3138.25" width="4.84" height="686.94"/><rect class="cls-7" x="317.53" y="3138.25" width="4.84" height="686.94"/><rect class="cls-7" x="305.01" y="3138.25" width="4.84" height="686.94"/><rect class="cls-7" x="292.49" y="3138.25" width="4.84" height="686.94"/><rect class="cls-7" x="279.96" y="3138.25" width="4.84" height="686.94"/><rect class="cls-7" x="267.44" y="3138.25" width="4.84" height="686.94"/><rect class="cls-7" x="254.92" y="3138.25" width="4.84" height="686.94"/><rect class="cls-7" x="242.39" y="3138.25" width="4.84" height="686.94"/><rect class="cls-7" x="229.87" y="3138.25" width="4.84" height="686.94"/><rect class="cls-7" x="217.35" y="3138.25" width="4.84" height="686.94"/><rect class="cls-7" x="204.82" y="3138.25" width="4.84" height="686.94"/><rect class="cls-7" x="192.3" y="3138.25" width="4.84" height="686.94"/><rect class="cls-7" x="179.78" y="3138.25" width="4.84" height="686.94"/><path class="cls-16" d="M1654.09,1829.55V1109.22c0-4.59-4.1-8.31-9.16-8.31h0c-5.06,0-9.16,3.72-9.16,8.31v720.33c0,4.59,4.1,8.31,9.16,8.31h0C1650,1837.86,1654.09,1834.14,1654.09,1829.55Z"/><path class="cls-16" d="M1470,1829.55V1109.22c0-4.59-4.1-8.31-9.16-8.31s-9.16,3.72-9.16,8.31v720.33c0,4.59,4.1,8.31,9.16,8.31S1470,1834.14,1470,1829.55Z"/><rect class="cls-6" x="1469.96" y="1125.92" width="165.8" height="686.94"/><rect class="cls-7" x="1625.06" y="1125.92" width="4.84" height="686.94"/><rect class="cls-7" x="1612.54" y="1125.92" width="4.84" height="686.94"/><rect class="cls-7" x="1600.01" y="1125.92" width="4.84" height="686.94"/><rect class="cls-7" x="1587.49" y="1125.92" width="4.84" height="686.94"/><rect class="cls-7" x="1574.97" y="1125.92" width="4.84" height="686.94"/><rect class="cls-7" x="1562.44" y="1125.92" width="4.84" height="686.94"/><rect class="cls-7" x="1549.92" y="1125.92" width="4.84" height="686.94"/><rect class="cls-7" x="1537.4" y="1125.92" width="4.84" height="686.94"/><rect class="cls-7" x="1524.87" y="1125.92" width="4.84" height="686.94"/><rect class="cls-7" x="1512.35" y="1125.92" width="4.84" height="686.94"/><rect class="cls-7" x="1499.83" y="1125.92" width="4.84" height="686.94"/><rect class="cls-7" x="1487.3" y="1125.92" width="4.84" height="686.94"/><rect class="cls-7" x="1474.78" y="1125.92" width="4.84" height="686.94"/><path class="cls-16" d="M3240.43,2835.72V2115.39c0-4.59-4.1-8.32-9.16-8.32h0c-5.06,0-9.16,3.73-9.16,8.32v720.33c0,4.59,4.1,8.31,9.16,8.31h0C3236.33,2844,3240.43,2840.31,3240.43,2835.72Z"/><path class="cls-16" d="M3056.3,2835.72V2115.39c0-4.59-4.1-8.32-9.16-8.32s-9.16,3.73-9.16,8.32v720.33c0,4.59,4.1,8.31,9.16,8.31S3056.3,2840.31,3056.3,2835.72Z"/><rect class="cls-6" x="3056.3" y="2132.08" width="165.8" height="686.94"/><rect class="cls-7" x="3211.4" y="2132.08" width="4.84" height="686.94"/><rect class="cls-7" x="3198.87" y="2132.08" width="4.84" height="686.94"/><rect class="cls-7" x="3186.35" y="2132.08" width="4.84" height="686.94"/><rect class="cls-7" x="3173.83" y="2132.08" width="4.84" height="686.94"/><rect class="cls-7" x="3161.31" y="2132.08" width="4.84" height="686.94"/><rect class="cls-7" x="3148.78" y="2132.08" width="4.84" height="686.94"/><rect class="cls-7" x="3136.26" y="2132.08" width="4.84" height="686.94"/><rect class="cls-7" x="3123.74" y="2132.08" width="4.84" height="686.94"/><rect class="cls-7" x="3111.21" y="2132.08" width="4.84" height="686.94"/><rect class="cls-7" x="3098.69" y="2132.08" width="4.84" height="686.94"/><rect class="cls-7" x="3086.17" y="2132.08" width="4.84" height="686.94"/><rect class="cls-7" x="3073.64" y="2132.08" width="4.84" height="686.94"/><rect class="cls-7" x="3061.12" y="2132.08" width="4.84" height="686.94"/><path class="cls-11" d="M2855.23,1831.4V1271c0-3.57-4.65-6.47-10.39-6.47h0c-5.73,0-10.38,2.9-10.38,6.47V1831.4c0,3.57,4.65,6.46,10.38,6.46h0C2850.58,1837.86,2855.23,1835,2855.23,1831.4Z"/><path class="cls-11" d="M2646.54,1831.4V1271c0-3.57-4.65-6.47-10.38-6.47s-10.39,2.9-10.39,6.47V1831.4c0,3.57,4.65,6.46,10.39,6.46S2646.54,1835,2646.54,1831.4Z"/><rect class="cls-6" x="2646.54" y="1283.98" width="187.92" height="534.43"/><rect class="cls-7" x="2822.32" y="1283.98" width="5.49" height="534.43"/><rect class="cls-7" x="2808.13" y="1283.98" width="5.49" height="534.43"/><rect class="cls-7" x="2793.94" y="1283.98" width="5.49" height="534.43"/><rect class="cls-7" x="2779.74" y="1283.98" width="5.49" height="534.43"/><rect class="cls-7" x="2765.55" y="1283.98" width="5.49" height="534.43"/><rect class="cls-7" x="2751.36" y="1283.98" width="5.49" height="534.43"/><rect class="cls-7" x="2737.16" y="1283.98" width="5.49" height="534.43"/><rect class="cls-7" x="2722.97" y="1283.98" width="5.49" height="534.43"/><rect class="cls-7" x="2708.78" y="1283.98" width="5.49" height="534.43"/><rect class="cls-7" x="2694.58" y="1283.98" width="5.49" height="534.43"/><rect class="cls-7" x="2680.39" y="1283.98" width="5.49" height="534.43"/><rect class="cls-7" x="2666.2" y="1283.98" width="5.49" height="534.43"/><rect class="cls-7" x="2652" y="1283.98" width="5.49" height="534.43"/><path class="cls-8" d="M3404.75,1831.23V1256.06c0-3.66-4.65-6.63-10.38-6.63h0c-5.74,0-10.39,3-10.39,6.63v575.17c0,3.66,4.65,6.63,10.39,6.63h0C3400.1,1837.86,3404.75,1834.89,3404.75,1831.23Z"/><path class="cls-8" d="M3196.07,1831.23V1256.06c0-3.66-4.65-6.63-10.39-6.63s-10.38,3-10.38,6.63v575.17c0,3.66,4.65,6.63,10.38,6.63S3196.07,1834.89,3196.07,1831.23Z"/><rect class="cls-6" x="3196.07" y="1269.4" width="187.92" height="548.5"/><rect class="cls-7" x="3371.85" y="1269.4" width="5.49" height="548.5"/><rect class="cls-7" x="3357.66" y="1269.4" width="5.49" height="548.5"/><rect class="cls-7" x="3343.46" y="1269.4" width="5.49" height="548.5"/><rect class="cls-7" x="3329.27" y="1269.4" width="5.49" height="548.5"/><rect class="cls-7" x="3315.08" y="1269.4" width="5.49" height="548.5"/><rect class="cls-7" x="3300.88" y="1269.4" width="5.49" height="548.5"/><rect class="cls-7" x="3286.69" y="1269.4" width="5.49" height="548.5"/><rect class="cls-7" x="3272.5" y="1269.4" width="5.49" height="548.5"/><rect class="cls-7" x="3258.3" y="1269.4" width="5.49" height="548.5"/><rect class="cls-7" x="3244.11" y="1269.4" width="5.49" height="548.5"/><rect class="cls-7" x="3229.92" y="1269.4" width="5.49" height="548.5"/><rect class="cls-7" x="3215.72" y="1269.4" width="5.49" height="548.5"/><rect class="cls-7" x="3201.53" y="1269.4" width="5.49" height="548.5"/><path class="cls-2" d="M1068.24,1830.23V1168.55a7.52,7.52,0,0,0-7.39-7.64h0a7.52,7.52,0,0,0-7.4,7.64v661.68a7.51,7.51,0,0,0,7.4,7.63h0A7.51,7.51,0,0,0,1068.24,1830.23Z"/><path class="cls-2" d="M919.7,1830.23V1168.55a7.39,7.39,0,1,0-14.78,0v661.68a7.39,7.39,0,1,0,14.78,0Z"/><rect class="cls-6" x="919.7" y="1183.89" width="133.75" height="631"/><rect class="cls-7" x="1044.82" y="1183.89" width="3.9" height="631"/><rect class="cls-7" x="1034.71" y="1183.89" width="3.9" height="631"/><rect class="cls-7" x="1024.61" y="1183.89" width="3.9" height="631"/><rect class="cls-7" x="1014.51" y="1183.89" width="3.9" height="631"/><rect class="cls-7" x="1004.41" y="1183.89" width="3.9" height="631"/><rect class="cls-7" x="994.31" y="1183.89" width="3.9" height="631"/><rect class="cls-7" x="984.2" y="1183.89" width="3.9" height="631"/><rect class="cls-7" x="974.1" y="1183.89" width="3.9" height="631"/><rect class="cls-7" x="964" y="1183.89" width="3.9" height="631"/><rect class="cls-7" x="953.9" y="1183.89" width="3.9" height="631"/><rect class="cls-7" x="943.79" y="1183.89" width="3.9" height="631"/><rect class="cls-7" x="933.69" y="1183.89" width="3.9" height="631"/><rect class="cls-7" x="923.59" y="1183.89" width="3.9" height="631"/><rect class="cls-12" x="1176.49" y="1178.88" width="102.95" height="658.98"/><rect class="cls-2" x="1219.65" y="1330.39" width="16.64" height="102.95" transform="translate(-153.9 2609.84) rotate(-90)"/><rect class="cls-2" x="1176.01" y="1228.76" width="103.92" height="102.95" transform="translate(-52.27 2508.2) rotate(-90)"/><rect class="cls-5" x="1259.71" y="1178.88" width="19.73" height="658.98"/><rect class="cls-10" x="1176.49" y="1178.88" width="19.73" height="658.98"/><rect class="cls-2" x="1295.77" y="1121.39" width="139.51" height="716.47"/><rect class="cls-9" x="1350.37" y="1159.08" width="30.32" height="139.51" transform="translate(2594.37 -136.69) rotate(90)"/><rect class="cls-9" x="1350.37" y="1219.19" width="30.32" height="139.51" transform="translate(2654.47 -76.59) rotate(90)"/><rect class="cls-5" x="1414.06" y="1121.39" width="21.23" height="716.47"/><rect class="cls-10" x="1295.77" y="1121.39" width="21.23" height="716.47"/><rect class="cls-2" x="2593.39" y="1420.19" width="695.84" height="139.51" transform="translate(1451.37 4431.26) rotate(-90)"/><rect class="cls-17" x="2622.39" y="1453.92" width="637.84" height="72.04" transform="translate(4431.26 -1451.37) rotate(90)"/><rect class="cls-5" x="2652.54" y="1479.33" width="695.84" height="21.23" transform="translate(4490.4 -1510.51) rotate(90)"/><rect class="cls-10" x="2534.25" y="1479.33" width="695.84" height="21.23" transform="translate(4372.11 -1392.23) rotate(90)"/><circle class="cls-2" cx="2941.31" cy="1311.92" r="30"/><rect class="cls-2" x="1682.66" y="1428.25" width="743.71" height="75.44"/><rect class="cls-3" x="1706.97" y="1428.24" width="17.01" height="75.44"/><rect class="cls-4" x="1682.66" y="1487.43" width="743.71" height="16.26"/><rect class="cls-5" x="1682.66" y="1428.25" width="743.71" height="16.26"/><rect class="cls-15" x="1682.66" y="1736.54" width="743.71" height="50.61"/><rect class="cls-3" x="1706.97" y="1736.53" width="17.01" height="50.61"/><rect class="cls-3" x="2381.82" y="1736.53" width="17.01" height="50.61"/><rect class="cls-4" x="1682.66" y="1776.23" width="743.71" height="10.91"/><rect class="cls-5" x="1682.66" y="1736.54" width="743.71" height="10.91"/><rect class="cls-2" x="1682.66" y="1787.14" width="743.71" height="50.61"/><rect class="cls-3" x="1706.97" y="1787.14" width="17.01" height="50.61"/><rect class="cls-3" x="2381.82" y="1787.14" width="17.01" height="50.61"/><rect class="cls-4" x="1682.66" y="1826.84" width="743.71" height="10.91"/><rect class="cls-5" x="1682.66" y="1787.14" width="743.71" height="10.91"/><rect class="cls-2" x="1696.28" y="1503.69" width="716.47" height="139.51"/><rect class="cls-9" x="1788.57" y="1503.69" width="30.32" height="139.51"/><rect class="cls-9" x="1848.67" y="1503.69" width="30.32" height="139.51"/><rect class="cls-5" x="1696.28" y="1503.69" width="716.47" height="21.23"/><rect class="cls-10" x="1696.28" y="1621.97" width="716.47" height="21.23"/><rect class="cls-13" x="1765.44" y="1643.21" width="578.15" height="93.33"/><rect class="cls-8" x="1919.41" y="1643.21" width="270.21" height="93.33"/><rect class="cls-5" x="1765.44" y="1643.21" width="578.15" height="17.89"/><rect class="cls-10" x="1765.44" y="1718.65" width="578.15" height="17.88"/><circle class="cls-8" cx="1836.44" cy="1689.87" r="19.95" transform="translate(-506.89 831.41) rotate(-22.5)"/><rect class="cls-12" x="1749.72" y="1325.03" width="609.59" height="103.22"/><rect class="cls-2" x="1822.21" y="1325.03" width="38" height="103.22"/><rect class="cls-2" x="2170.21" y="1325.03" width="38" height="103.22"/><rect class="cls-2" x="2266.21" y="1325.03" width="38" height="103.22"/><rect class="cls-18" x="2208.21" y="1325.03" width="58" height="103.22"/><rect class="cls-5" x="1749.72" y="1325.03" width="609.59" height="19.78"/><rect class="cls-10" x="1749.72" y="1408.47" width="609.59" height="19.78"/><rect class="cls-3" x="443.09" y="2100.32" width="75.44" height="743.71"/><rect class="cls-19" x="472.13" y="2792.27" width="17.01" height="37.89" transform="translate(-2330.58 3291.86) rotate(-90)"/><rect class="cls-19" x="472.13" y="2755.92" width="17.01" height="37.89" transform="translate(-2294.22 3255.5) rotate(-90)"/><rect class="cls-19" x="472.13" y="2719.57" width="17.01" height="37.89" transform="translate(-2257.87 3219.15) rotate(-90)"/><rect class="cls-4" x="502.27" y="2100.32" width="16.26" height="743.71"/><rect class="cls-5" x="443.09" y="2100.32" width="16.26" height="743.71"/><circle class="cls-19" cx="480.81" cy="2155.36" r="12.39"/><rect class="cls-2" x="1073.4" y="635.93" width="716.47" height="195.77"/><rect class="cls-20" x="1165.69" y="635.93" width="30.32" height="195.77" transform="translate(2361.69 1467.62) rotate(180)"/><rect class="cls-20" x="1667.27" y="635.93" width="30.32" height="195.77" transform="translate(3364.86 1467.62) rotate(180)"/><rect class="cls-5" x="1073.4" y="801.91" width="716.47" height="29.79"/><rect class="cls-10" x="1073.4" y="635.93" width="716.47" height="29.79"/><rect class="cls-12" x="1398.74" y="534.32" width="61.5" height="398.98" transform="translate(2163.3 -695.68) rotate(90)"/><rect class="cls-12" x="1102.54" y="496.41" width="571.38" height="139.51"/><rect class="cls-11" x="1586.71" y="496.41" width="21.56" height="139.51"/><rect class="cls-2" x="1187.18" y="496.41" width="21.56" height="139.51"/><rect class="cls-11" x="1144.42" y="496.41" width="21.56" height="139.51"/><rect class="cls-5" x="1102.54" y="614.7" width="571.38" height="21.23" transform="translate(2776.45 1250.63) rotate(180)"/><rect class="cls-10" x="1102.54" y="496.41" width="571.38" height="21.23" transform="translate(2776.45 1014.06) rotate(180)"/><rect class="cls-21" x="766.91" y="87.96" width="75.44" height="743.71"/><rect class="cls-3" x="495.18" y="448.04" width="617.91" height="26.77" transform="translate(1265.55 -342.72) rotate(90)"/><rect class="cls-3" x="796.13" y="83.06" width="17.01" height="75.44" transform="translate(925.41 -683.86) rotate(90)"/><rect class="cls-3" x="796.13" y="757.91" width="17.01" height="75.44" transform="translate(1600.26 -9.01) rotate(90)"/><rect class="cls-4" x="766.91" y="87.96" width="16.26" height="743.71"/><rect class="cls-5" x="826.09" y="87.96" width="16.26" height="743.71"/><rect class="cls-15" x="2169.02" y="87.96" width="50.61" height="743.71"/><rect class="cls-3" x="2185.81" y="95.48" width="17.01" height="50.61" transform="translate(2315.1 -2073.54) rotate(90)"/><rect class="cls-3" x="2185.81" y="770.32" width="17.01" height="50.61" transform="translate(2989.95 -1398.69) rotate(90)"/><rect class="cls-4" x="2169.02" y="87.96" width="10.91" height="743.71"/><rect class="cls-5" x="2208.71" y="87.96" width="10.91" height="743.71"/><path class="cls-3" d="M570.83,823.68V130.39a7.81,7.81,0,0,0-7.61-8h0a7.81,7.81,0,0,0-7.61,8V823.68a7.81,7.81,0,0,0,7.61,8h0A7.81,7.81,0,0,0,570.83,823.68Z"/><path class="cls-3" d="M496.21,823.68V130.39a7.62,7.62,0,1,0-15.22,0V823.68a7.62,7.62,0,1,0,15.22,0Z"/><rect class="cls-6" x="496.21" y="146.46" width="59.4" height="661.15"/><rect class="cls-7" x="544.71" y="146.46" width="4.02" height="661.15"/><rect class="cls-7" x="534.31" y="146.46" width="4.02" height="661.15"/><rect class="cls-7" x="523.9" y="146.46" width="4.02" height="661.15"/><rect class="cls-7" x="513.5" y="146.46" width="4.02" height="661.15"/><rect class="cls-7" x="503.1" y="146.46" width="4.02" height="661.15"/><path class="cls-3" d="M624.7,2836V2142.74a7.82,7.82,0,0,0-7.61-8h0a7.82,7.82,0,0,0-7.61,8V2836a7.81,7.81,0,0,0,7.61,8h0A7.81,7.81,0,0,0,624.7,2836Z"/><path class="cls-3" d="M550.08,2836V2142.74a7.62,7.62,0,1,0-15.22,0V2836a7.62,7.62,0,1,0,15.22,0Z"/><rect class="cls-6" x="550.08" y="2158.82" width="59.4" height="661.15"/><rect class="cls-7" x="598.58" y="2158.82" width="4.02" height="661.15"/><rect class="cls-7" x="588.17" y="2158.82" width="4.02" height="661.15"/><rect class="cls-7" x="577.77" y="2158.82" width="4.02" height="661.15"/><rect class="cls-7" x="567.37" y="2158.82" width="4.02" height="661.15"/><rect class="cls-7" x="556.97" y="2158.82" width="4.02" height="661.15"/><path class="cls-3" d="M2741.62,824.33V100.74c0-4.61-2.21-7.35-4.94-7.35h0c-2.72,0-4.94,2.74-4.94,7.35V824.33c0,4.61,2.22,7.35,4.94,7.35h0C2739.41,831.68,2741.62,828.94,2741.62,824.33Z"/><path class="cls-3" d="M2693.19,824.33V100.74c0-4.61-2.21-7.35-4.94-7.35s-4.94,2.74-4.94,7.35V824.33c0,4.61,2.21,7.35,4.94,7.35S2693.19,828.94,2693.19,824.33Z"/><rect class="cls-6" x="2693.19" y="117.51" width="38.56" height="690.04"/><rect class="cls-7" x="2724.67" y="117.51" width="2.61" height="690.04"/><rect class="cls-7" x="2717.91" y="117.51" width="2.61" height="690.04"/><rect class="cls-7" x="2711.16" y="117.51" width="2.61" height="690.04"/><rect class="cls-7" x="2704.41" y="117.51" width="2.61" height="690.04"/><rect class="cls-7" x="2697.66" y="117.51" width="2.61" height="690.04"/><path class="cls-22" d="M2033.13,825.21V264.8c0-3.57-4.65-6.46-10.38-6.46h0c-5.74,0-10.39,2.89-10.39,6.46V825.21c0,3.57,4.65,6.47,10.39,6.47h0C2028.48,831.68,2033.13,828.78,2033.13,825.21Z"/><path class="cls-22" d="M1824.44,825.21V264.8c0-3.57-4.64-6.46-10.38-6.46s-10.38,2.89-10.38,6.46V825.21c0,3.57,4.65,6.47,10.38,6.47S1824.44,828.78,1824.44,825.21Z"/><rect class="cls-6" x="1824.44" y="277.79" width="187.92" height="534.43"/><rect class="cls-7" x="2000.23" y="277.79" width="5.49" height="534.43"/><rect class="cls-7" x="1986.03" y="277.79" width="5.49" height="534.43"/><rect class="cls-7" x="1971.84" y="277.79" width="5.49" height="534.43"/><rect class="cls-7" x="1957.65" y="277.79" width="5.49" height="534.43"/><rect class="cls-7" x="1943.45" y="277.79" width="5.49" height="534.43"/><rect class="cls-7" x="1929.26" y="277.79" width="5.49" height="534.43"/><rect class="cls-7" x="1915.07" y="277.79" width="5.49" height="534.43"/><rect class="cls-7" x="1900.87" y="277.79" width="5.49" height="534.43"/><rect class="cls-7" x="1886.68" y="277.79" width="5.49" height="534.43"/><rect class="cls-7" x="1872.49" y="277.79" width="5.49" height="534.43"/><rect class="cls-7" x="1858.29" y="277.79" width="5.49" height="534.43"/><rect class="cls-7" x="1844.1" y="277.79" width="5.49" height="534.43"/><rect class="cls-7" x="1829.91" y="277.79" width="5.49" height="534.43"/><path class="cls-23" d="M2557.28,824.35V188.78c0-4.05-4.09-7.33-9.14-7.33h0c-5,0-9.15,3.28-9.15,7.33V824.35c0,4,4.1,7.33,9.15,7.33h0C2553.19,831.68,2557.28,828.39,2557.28,824.35Z"/><path class="cls-23" d="M2373.53,824.35V188.78c0-4.05-4.09-7.33-9.14-7.33s-9.15,3.28-9.15,7.33V824.35c0,4,4.1,7.33,9.15,7.33S2373.53,828.39,2373.53,824.35Z"/><rect class="cls-6" x="2373.53" y="203.52" width="165.46" height="606.09"/><rect class="cls-7" x="2528.31" y="203.52" width="4.83" height="606.09"/><rect class="cls-7" x="2515.81" y="203.52" width="4.83" height="606.09"/><rect class="cls-7" x="2503.31" y="203.52" width="4.83" height="606.09"/><rect class="cls-7" x="2490.82" y="203.52" width="4.83" height="606.09"/><rect class="cls-7" x="2478.32" y="203.52" width="4.83" height="606.09"/><rect class="cls-7" x="2465.82" y="203.52" width="4.83" height="606.09"/><rect class="cls-7" x="2453.32" y="203.52" width="4.83" height="606.09"/><rect class="cls-7" x="2440.83" y="203.52" width="4.83" height="606.09"/><rect class="cls-7" x="2428.33" y="203.52" width="4.83" height="606.09"/><rect class="cls-7" x="2415.83" y="203.52" width="4.83" height="606.09"/><rect class="cls-7" x="2403.33" y="203.52" width="4.83" height="606.09"/><rect class="cls-7" x="2390.84" y="203.52" width="4.83" height="606.09"/><rect class="cls-7" x="2378.34" y="203.52" width="4.83" height="606.09"/><path class="cls-2" d="M750.5,824V162.36a7.51,7.51,0,0,0-7.39-7.63h0a7.51,7.51,0,0,0-7.39,7.63V824a7.52,7.52,0,0,0,7.39,7.64h0A7.52,7.52,0,0,0,750.5,824Z"/><path class="cls-2" d="M602,824V162.36a7.39,7.39,0,1,0-14.78,0V824A7.39,7.39,0,1,0,602,824Z"/><rect class="cls-6" x="601.97" y="177.7" width="133.75" height="631"/><rect class="cls-7" x="727.08" y="177.7" width="3.9" height="631"/><rect class="cls-7" x="716.98" y="177.7" width="3.9" height="631"/><rect class="cls-7" x="706.88" y="177.7" width="3.9" height="631"/><rect class="cls-7" x="696.78" y="177.7" width="3.9" height="631"/><rect class="cls-7" x="686.67" y="177.7" width="3.9" height="631"/><rect class="cls-7" x="676.57" y="177.7" width="3.9" height="631"/><rect class="cls-7" x="666.47" y="177.7" width="3.9" height="631"/><rect class="cls-7" x="656.37" y="177.7" width="3.9" height="631"/><rect class="cls-7" x="646.26" y="177.7" width="3.9" height="631"/><rect class="cls-7" x="636.16" y="177.7" width="3.9" height="631"/><rect class="cls-7" x="626.06" y="177.7" width="3.9" height="631"/><rect class="cls-7" x="615.96" y="177.7" width="3.9" height="631"/><rect class="cls-7" x="605.86" y="177.7" width="3.9" height="631"/><rect class="cls-2" x="2235.96" y="172.7" width="102.95" height="658.98"/><rect class="cls-2" x="2279.11" y="577.22" width="16.64" height="102.95" transform="translate(2916.12 -1658.74) rotate(90)"/><rect class="cls-2" x="2235.47" y="678.85" width="103.92" height="102.95" transform="translate(3017.76 -1557.1) rotate(90)"/><rect class="cls-5" x="2235.96" y="172.7" width="19.73" height="658.98"/><rect class="cls-10" x="2319.18" y="172.7" width="19.73" height="658.98"/><rect class="cls-2" x="2940.64" y="111.18" width="139.51" height="716.47" transform="translate(2.22 952.85) rotate(-17.99)"/><rect class="cls-9" x="2917.77" y="161.13" width="30.32" height="139.51" transform="translate(2246.56 -2629.93) rotate(72.01)"/><rect class="cls-9" x="2936.34" y="218.3" width="30.32" height="139.51" transform="translate(2313.76 -2608.08) rotate(72.01)"/><rect class="cls-5" x="3056.03" y="92.91" width="21.23" height="716.47" transform="translate(10.62 969.35) rotate(-17.99)"/><rect class="cls-10" x="2943.53" y="129.44" width="21.23" height="716.47" transform="translate(-6.17 936.36) rotate(-17.99)"/><rect class="cls-12" x="3195.18" y="139.18" width="195.77" height="692.5"/><rect class="cls-20" x="3278.42" y="629.95" width="29.3" height="195.77" transform="translate(4020.9 -2565.24) rotate(90)"/><rect class="cls-20" x="3278.42" y="145.15" width="29.3" height="195.77" transform="translate(3536.1 -3050.03) rotate(90)"/><rect class="cls-5" x="3361.16" y="139.18" width="29.79" height="692.5"/><rect class="cls-10" x="3195.18" y="139.18" width="29.79" height="692.5"/><rect class="cls-2" x="858.77" y="180.36" width="195.77" height="651.32"/><rect class="cls-24" x="942.87" y="180.15" width="27.56" height="195.77" transform="translate(1234.69 -678.62) rotate(90)"/><rect class="cls-24" x="942.87" y="307.27" width="27.56" height="195.77" transform="translate(1361.8 -551.5) rotate(90)"/><rect class="cls-25" x="906.88" y="243.71" width="99.56" height="195.77" transform="translate(1298.25 -615.06) rotate(90)"/><rect class="cls-5" x="1024.75" y="180.36" width="29.79" height="651.32"/><rect class="cls-10" x="858.77" y="180.36" width="29.79" height="651.32"/><rect class="cls-2" x="-109.14" y="414" width="695.84" height="139.51" transform="translate(-244.98 722.54) rotate(-90)"/><rect class="cls-3" x="225.65" y="159.15" width="26.26" height="139.51" transform="translate(9.87 467.69) rotate(-90)"/><rect class="cls-3" x="225.65" y="593.65" width="26.26" height="139.51" transform="translate(-424.62 902.18) rotate(-90)"/><rect class="cls-2" x="225.65" y="541.58" width="26.26" height="139.51" transform="translate(-372.56 850.12) rotate(-90)"/><rect class="cls-2" x="225.65" y="645.71" width="26.26" height="139.51" transform="translate(-476.69 954.25) rotate(-90)"/><rect class="cls-3" x="225.65" y="697.78" width="26.26" height="139.51" transform="translate(-528.75 1006.32) rotate(-90)"/><rect class="cls-5" x="-50" y="473.14" width="695.84" height="21.23" transform="translate(781.68 185.83) rotate(90)"/><rect class="cls-10" x="-168.28" y="473.14" width="695.84" height="21.23" transform="translate(663.4 304.12) rotate(90)"/><circle class="cls-2" cx="238.78" cy="305.73" r="30"/><rect class="cls-2" x="109.22" y="476.23" width="571.38" height="139.51" transform="translate(-151.08 940.89) rotate(-90)"/><rect class="cls-11" x="384.12" y="266.97" width="21.56" height="139.51" transform="translate(58.18 731.63) rotate(-90)"/><rect class="cls-2" x="384.12" y="666.5" width="21.56" height="139.51" transform="translate(-341.35 1131.16) rotate(-90)"/><rect class="cls-11" x="384.12" y="709.25" width="21.56" height="139.51" transform="translate(-384.1 1173.91) rotate(-90)"/><rect class="cls-5" x="168.36" y="535.37" width="571.38" height="21.23" transform="translate(1000.04 91.94) rotate(90)"/><rect class="cls-10" x="50.07" y="535.37" width="571.38" height="21.23" transform="translate(881.75 210.22) rotate(90)"/><rect class="cls-13" x="2573.61" y="253.52" width="93.33" height="578.15"/><rect class="cls-8" x="2573.61" y="407.5" width="93.33" height="270.21"/><rect class="cls-5" x="2649.06" y="253.52" width="17.89" height="578.15"/><rect class="cls-10" x="2573.61" y="253.52" width="17.89" height="578.15"/><circle class="cls-8" cx="2620.28" cy="324.52" r="19.95"/><rect class="cls-2" x="2049.46" y="222.09" width="103.22" height="609.59"/><rect class="cls-2" x="2049.46" y="294.58" width="103.22" height="38"/><rect class="cls-2" x="2049.46" y="642.58" width="103.22" height="38"/><rect class="cls-2" x="2049.46" y="738.58" width="103.22" height="38"/><rect class="cls-18" x="2049.46" y="680.58" width="103.22" height="58"/><rect class="cls-5" x="2132.9" y="222.09" width="19.78" height="609.59"/><rect class="cls-10" x="2049.46" y="222.09" width="19.78" height="609.59"/><rect class="cls-2" x="641.03" y="2234.44" width="150.58" height="609.59"/><rect class="cls-2" x="641.03" y="2306.93" width="150.58" height="38"/><rect class="cls-2" x="641.03" y="2654.93" width="150.58" height="38"/><rect class="cls-2" x="641.03" y="2750.93" width="150.58" height="38"/><rect class="cls-18" x="641.03" y="2692.93" width="150.58" height="58"/><rect class="cls-5" x="762.76" y="2234.44" width="28.86" height="609.59"/><rect class="cls-10" x="641.03" y="2234.44" width="28.86" height="609.59"/><rect class="cls-2" x="2757.96" y="87.96" width="75.44" height="743.71"/><rect class="cls-19" x="2787.34" y="101.83" width="17.01" height="37.89" transform="translate(2916.63 -2675.07) rotate(90)"/><rect class="cls-19" x="2787.34" y="138.19" width="17.01" height="37.89" transform="translate(2952.98 -2638.71) rotate(90)"/><rect class="cls-19" x="2787.34" y="174.54" width="17.01" height="37.89" transform="translate(2989.33 -2602.36) rotate(90)"/><rect class="cls-4" x="2757.96" y="87.96" width="16.26" height="743.71"/><rect class="cls-5" x="2817.14" y="87.96" width="16.26" height="743.71"/><circle class="cls-19" cx="2795.68" cy="776.63" r="12.39" transform="translate(1397.51 3319.09) rotate(-76.72)"/><rect class="cls-12" x="75.14" y="2127.56" width="195.77" height="716.47"/><rect class="cls-11" x="157.87" y="2638.71" width="30.32" height="195.77" transform="translate(2909.61 2563.56) rotate(90)"/><rect class="cls-11" x="157.87" y="2137.12" width="30.32" height="195.77" transform="translate(2408.03 2061.98) rotate(90)"/><rect class="cls-5" x="75.14" y="2127.56" width="29.79" height="716.47"/><rect class="cls-10" x="241.12" y="2127.56" width="29.79" height="716.47"/><rect class="cls-11" x="142.28" y="2288.46" width="61.5" height="398.98" transform="translate(346.05 4975.9) rotate(180)"/><rect class="cls-15" x="71.31" y="2488.59" width="571.38" height="139.51" transform="translate(-2201.35 2915.34) rotate(-90)"/><rect class="cls-6" x="346.22" y="2279.32" width="21.56" height="139.51" transform="translate(-1992.08 2706.08) rotate(-90)"/><rect class="cls-2" x="346.22" y="2678.85" width="21.56" height="139.51" transform="translate(-2391.61 3105.61) rotate(-90)"/><rect class="cls-6" x="346.22" y="2721.61" width="21.56" height="139.51" transform="translate(-2434.37 3148.36) rotate(-90)"/><rect class="cls-5" x="12.16" y="2547.73" width="571.38" height="21.23" transform="translate(2856.2 2260.49) rotate(90)"/><rect class="cls-10" x="130.45" y="2547.73" width="571.38" height="21.23" transform="translate(2974.48 2142.2) rotate(90)"/><rect class="cls-21" x="1020.13" y="2100.32" width="75.44" height="743.71"/><rect class="cls-3" x="749.4" y="2460.39" width="617.91" height="26.77" transform="translate(3532.12 1415.42) rotate(90)"/><rect class="cls-3" x="1049.34" y="2095.41" width="17.01" height="75.44" transform="translate(3190.98 1075.28) rotate(90)"/><rect class="cls-3" x="1049.34" y="2770.26" width="17.01" height="75.44" transform="translate(3865.83 1750.13) rotate(90)"/><rect class="cls-4" x="1079.31" y="2100.32" width="16.26" height="743.71"/><rect class="cls-5" x="1020.13" y="2100.32" width="16.26" height="743.71"/><path class="cls-2" d="M1928.7,2836V2142.74c0-4.41,4.1-8,9.16-8h0c5.06,0,9.16,3.59,9.16,8V2836c0,4.42-4.1,8-9.16,8h0C1932.8,2844,1928.7,2840.45,1928.7,2836Z"/><path class="cls-2" d="M2018.53,2836V2142.74c0-4.41,4.1-8,9.16-8s9.16,3.59,9.16,8V2836c0,4.42-4.1,8-9.16,8S2018.53,2840.45,2018.53,2836Z"/><rect class="cls-6" x="1947.02" y="2158.82" width="71.51" height="661.15"/><rect class="cls-7" x="1955.31" y="2158.82" width="4.84" height="661.15"/><rect class="cls-7" x="1967.83" y="2158.82" width="4.84" height="661.15"/><rect class="cls-7" x="1980.35" y="2158.82" width="4.84" height="661.15"/><rect class="cls-7" x="1992.88" y="2158.82" width="4.84" height="661.15"/><rect class="cls-7" x="2005.4" y="2158.82" width="4.84" height="661.15"/><path class="cls-3" d="M1291.66,2836V2142.74a7.81,7.81,0,0,1,7.6-8h0a7.81,7.81,0,0,1,7.61,8V2836a7.81,7.81,0,0,1-7.61,8h0A7.8,7.8,0,0,1,1291.66,2836Z"/><path class="cls-3" d="M1366.27,2836V2142.74a7.62,7.62,0,1,1,15.22,0V2836a7.62,7.62,0,1,1-15.22,0Z"/><rect class="cls-6" x="1306.87" y="2158.82" width="59.4" height="661.15"/><rect class="cls-7" x="1313.76" y="2158.82" width="4.02" height="661.15"/><rect class="cls-7" x="1324.16" y="2158.82" width="4.02" height="661.15"/><rect class="cls-7" x="1334.56" y="2158.82" width="4.02" height="661.15"/><rect class="cls-7" x="1344.96" y="2158.82" width="4.02" height="661.15"/><rect class="cls-7" x="1355.36" y="2158.82" width="4.02" height="661.15"/><path class="cls-16" d="M1709.9,2835.72V2115.39c0-4.59,4.1-8.32,9.16-8.32h0c5.06,0,9.17,3.73,9.17,8.32v720.33c0,4.59-4.11,8.31-9.17,8.31h0C1714,2844,1709.9,2840.31,1709.9,2835.72Z"/><path class="cls-16" d="M1894,2835.72V2115.39c0-4.59,4.1-8.32,9.16-8.32s9.16,3.73,9.16,8.32v720.33c0,4.59-4.1,8.31-9.16,8.31S1894,2840.31,1894,2835.72Z"/><rect class="cls-6" x="1728.23" y="2132.08" width="165.8" height="686.94"/><rect class="cls-7" x="1734.09" y="2132.08" width="4.84" height="686.94"/><rect class="cls-7" x="1746.62" y="2132.08" width="4.84" height="686.94"/><rect class="cls-7" x="1759.14" y="2132.08" width="4.84" height="686.94"/><rect class="cls-7" x="1771.66" y="2132.08" width="4.84" height="686.94"/><rect class="cls-7" x="1784.19" y="2132.08" width="4.84" height="686.94"/><rect class="cls-7" x="1796.71" y="2132.08" width="4.84" height="686.94"/><rect class="cls-7" x="1809.23" y="2132.08" width="4.84" height="686.94"/><rect class="cls-7" x="1821.76" y="2132.08" width="4.84" height="686.94"/><rect class="cls-7" x="1834.28" y="2132.08" width="4.84" height="686.94"/><rect class="cls-7" x="1846.8" y="2132.08" width="4.84" height="686.94"/><rect class="cls-7" x="1859.32" y="2132.08" width="4.84" height="686.94"/><rect class="cls-7" x="1871.85" y="2132.08" width="4.84" height="686.94"/><rect class="cls-7" x="1884.37" y="2132.08" width="4.84" height="686.94"/><path class="cls-2" d="M1112,2836.4V2174.71a7.52,7.52,0,0,1,7.39-7.63h0a7.52,7.52,0,0,1,7.39,7.63V2836.4a7.52,7.52,0,0,1-7.39,7.63h0A7.52,7.52,0,0,1,1112,2836.4Z"/><path class="cls-2" d="M1260.52,2836.4V2174.71a7.39,7.39,0,1,1,14.78,0V2836.4a7.39,7.39,0,1,1-14.78,0Z"/><rect class="cls-6" x="1126.76" y="2190.05" width="133.75" height="631"/><rect class="cls-7" x="1131.5" y="2190.05" width="3.9" height="631"/><rect class="cls-7" x="1141.6" y="2190.05" width="3.9" height="631"/><rect class="cls-7" x="1151.7" y="2190.05" width="3.9" height="631"/><rect class="cls-7" x="1161.8" y="2190.05" width="3.9" height="631"/><rect class="cls-7" x="1171.91" y="2190.05" width="3.9" height="631"/><rect class="cls-7" x="1182.01" y="2190.05" width="3.9" height="631"/><rect class="cls-7" x="1192.11" y="2190.05" width="3.9" height="631"/><rect class="cls-7" x="1202.21" y="2190.05" width="3.9" height="631"/><rect class="cls-7" x="1212.32" y="2190.05" width="3.9" height="631"/><rect class="cls-7" x="1222.42" y="2190.05" width="3.9" height="631"/><rect class="cls-7" x="1232.52" y="2190.05" width="3.9" height="631"/><rect class="cls-7" x="1242.62" y="2190.05" width="3.9" height="631"/><rect class="cls-7" x="1252.72" y="2190.05" width="3.9" height="631"/><rect class="cls-26" x="2789.21" y="2185.05" width="85.41" height="658.98"/><rect class="cls-27" x="2823.58" y="2711.33" width="16.64" height="85.4" transform="translate(77.87 5585.94) rotate(-90)"/><rect class="cls-27" x="2823.58" y="2678.19" width="16.64" height="85.4" transform="translate(111.01 5552.79) rotate(-90)"/><rect class="cls-27" x="2779.94" y="2243.7" width="103.92" height="85.4" transform="translate(545.5 5118.31) rotate(-90)"/><rect class="cls-5" x="2789.21" y="2185.05" width="16.37" height="658.98"/><rect class="cls-10" x="2858.24" y="2185.05" width="16.37" height="658.98"/><rect class="cls-28" x="2633.36" y="2127.56" width="139.51" height="716.47"/><rect class="cls-2" x="2687.96" y="2666.83" width="30.32" height="139.51" transform="translate(5439.71 33.47) rotate(90)"/><rect class="cls-2" x="2687.96" y="2165.25" width="30.32" height="139.51" transform="translate(4938.12 -468.11) rotate(90)"/><rect class="cls-2" x="2687.96" y="2225.35" width="30.32" height="139.51" transform="translate(4998.23 -408) rotate(90)"/><circle class="cls-2" cx="2703.12" cy="2617.88" r="42.72" transform="translate(-1059.4 2678.15) rotate(-45)"/><rect class="cls-5" x="2633.36" y="2127.56" width="21.23" height="716.47"/><rect class="cls-10" x="2751.64" y="2127.56" width="21.23" height="716.47"/><rect class="cls-2" x="2053.19" y="2127.56" width="139.51" height="716.47"/><rect class="cls-9" x="2107.79" y="2165.25" width="30.32" height="139.51" transform="translate(4357.95 112.06) rotate(90)"/><rect class="cls-9" x="2107.79" y="2225.35" width="30.32" height="139.51" transform="translate(4418.06 172.17) rotate(90)"/><rect class="cls-5" x="2053.19" y="2127.56" width="21.23" height="716.47"/><rect class="cls-10" x="2171.47" y="2127.56" width="21.23" height="716.47"/><rect class="cls-3" x="2421.26" y="2127.56" width="195.77" height="716.47"/><rect class="cls-2" x="2503.98" y="2638.71" width="30.32" height="195.77" transform="translate(5255.73 217.45) rotate(90)"/><rect class="cls-2" x="2503.98" y="2137.12" width="30.32" height="195.77" transform="translate(4754.15 -284.14) rotate(90)"/><rect class="cls-5" x="2421.26" y="2127.56" width="29.79" height="716.47"/><rect class="cls-10" x="2587.23" y="2127.56" width="29.79" height="716.47"/><rect class="cls-2" x="2488.39" y="2288.46" width="61.5" height="398.98" transform="translate(5038.28 4975.9) rotate(180)"/><rect class="cls-12" x="2209.16" y="2257.87" width="195.77" height="586.16"/><rect class="cls-20" x="2294.64" y="2658.25" width="24.8" height="195.77" transform="translate(5063.17 449.09) rotate(90)"/><rect class="cls-20" x="2294.64" y="2247.89" width="24.8" height="195.77" transform="translate(4652.82 38.74) rotate(90)"/><rect class="cls-5" x="2209.16" y="2257.87" width="29.79" height="586.16"/><rect class="cls-10" x="2375.13" y="2257.87" width="29.79" height="586.16"/><rect class="cls-2" x="807.95" y="2192.72" width="195.77" height="651.32"/><rect class="cls-24" x="892.05" y="2192.51" width="27.56" height="195.77" transform="translate(3196.22 1384.56) rotate(90)"/><rect class="cls-24" x="892.05" y="2319.62" width="27.56" height="195.77" transform="translate(3323.34 1511.67) rotate(90)"/><rect class="cls-2" x="856.05" y="2256.06" width="99.56" height="195.77" transform="translate(3259.78 1448.12) rotate(90)"/><rect class="cls-5" x="807.95" y="2192.72" width="29.79" height="651.32"/><rect class="cls-10" x="973.92" y="2192.72" width="29.79" height="651.32"/><rect class="cls-11" x="1275.78" y="2426.36" width="695.84" height="139.51" transform="translate(-872.41 4119.82) rotate(-90)"/><rect class="cls-3" x="1610.57" y="2171.51" width="26.26" height="139.51" transform="translate(-617.56 3864.97) rotate(-90)"/><rect class="cls-3" x="1610.57" y="2606" width="26.26" height="139.51" transform="translate(-1052.05 4299.46) rotate(-90)"/><rect class="cls-2" x="1610.57" y="2553.94" width="26.26" height="139.51" transform="translate(-999.99 4247.4) rotate(-90)"/><rect class="cls-2" x="1610.57" y="2658.07" width="26.26" height="139.51" transform="translate(-1104.12 4351.53) rotate(-90)"/><rect class="cls-3" x="1610.57" y="2710.13" width="26.26" height="139.51" transform="translate(-1156.19 4403.59) rotate(-90)"/><rect class="cls-5" x="1216.64" y="2485.5" width="695.84" height="21.23" transform="translate(4060.67 931.55) rotate(90)"/><rect class="cls-10" x="1334.92" y="2485.5" width="695.84" height="21.23" transform="translate(4178.96 813.27) rotate(90)"/><circle class="cls-2" cx="1623.7" cy="2318.09" r="30"/><rect class="cls-2" x="1181.89" y="2488.59" width="571.38" height="139.51" transform="translate(-1090.76 4025.92) rotate(-90)"/><rect class="cls-11" x="1456.8" y="2279.32" width="21.56" height="139.51" transform="translate(-881.5 3816.66) rotate(-90)"/><rect class="cls-2" x="1456.8" y="2678.85" width="21.56" height="139.51" transform="translate(-1281.03 4216.19) rotate(-90)"/><rect class="cls-11" x="1456.8" y="2721.61" width="21.56" height="139.51" transform="translate(-1323.78 4258.94) rotate(-90)"/><rect class="cls-5" x="1122.75" y="2547.73" width="571.38" height="21.23" transform="translate(3966.78 1149.91) rotate(90)"/><rect class="cls-10" x="1241.03" y="2547.73" width="571.38" height="21.23" transform="translate(4085.06 1031.62) rotate(90)"/><rect class="cls-2" x="644.33" y="1149.24" width="67.31" height="688.63"/><rect class="cls-3" x="670.11" y="1145.97" width="15.75" height="67.31" transform="translate(1857.61 501.64) rotate(90)"/><rect class="cls-3" x="670.11" y="1770.83" width="15.75" height="67.31" transform="translate(2482.47 1126.5) rotate(90)"/><rect class="cls-4" x="644.33" y="1149.24" width="14.51" height="688.63"/><rect class="cls-5" x="697.13" y="1149.24" width="14.51" height="688.63"/><path class="cls-2" d="M888.59,1831.48v-726.9c0-4.64-1.92-6.39-4.29-6.39h0c-2.37,0-4.29,1.75-4.29,6.39v726.9c0,4.63,1.92,6.38,4.29,6.38h0C886.67,1837.86,888.59,1836.11,888.59,1831.48Z"/><path class="cls-2" d="M846.55,1831.48v-726.9c0-4.64-1.92-6.39-4.28-6.39s-4.29,1.75-4.29,6.39v726.9c0,4.63,1.92,6.38,4.29,6.38S846.55,1836.11,846.55,1831.48Z"/><rect class="cls-6" x="846.55" y="1121.43" width="33.46" height="693.2"/><rect class="cls-7" x="873.87" y="1121.43" width="2.26" height="693.2"/><rect class="cls-7" x="868.01" y="1121.43" width="2.26" height="693.2"/><rect class="cls-7" x="862.15" y="1121.43" width="2.26" height="693.2"/><rect class="cls-7" x="856.29" y="1121.43" width="2.26" height="693.2"/><rect class="cls-7" x="850.43" y="1121.43" width="2.26" height="693.2"/><path class="cls-2" d="M415.91,1829.87v-693.3a7.81,7.81,0,0,0-7.61-8h0a7.81,7.81,0,0,0-7.61,8v693.3a7.81,7.81,0,0,0,7.61,8h0A7.81,7.81,0,0,0,415.91,1829.87Z"/><path class="cls-2" d="M341.29,1829.87v-693.3a7.62,7.62,0,1,0-15.22,0v693.3a7.62,7.62,0,1,0,15.22,0Z"/><rect class="cls-6" x="341.29" y="1152.65" width="59.4" height="661.15"/><rect class="cls-7" x="389.79" y="1152.65" width="4.02" height="661.15"/><rect class="cls-7" x="379.38" y="1152.65" width="4.02" height="661.15"/><rect class="cls-7" x="368.98" y="1152.65" width="4.02" height="661.15"/><rect class="cls-7" x="358.58" y="1152.65" width="4.02" height="661.15"/><rect class="cls-7" x="348.18" y="1152.65" width="4.02" height="661.15"/><rect class="cls-29" x="113.97" y="1251.7" width="195.77" height="586.16"/><rect class="cls-30" x="199.46" y="1231.57" width="24.8" height="195.77" transform="translate(1541.31 1117.6) rotate(90)"/><rect class="cls-30" x="199.46" y="1276.9" width="24.8" height="195.77" transform="translate(1586.64 1162.93) rotate(90)"/><rect class="cls-30" x="199.46" y="1322.23" width="24.8" height="195.77" transform="translate(1631.97 1208.26) rotate(90)"/><rect class="cls-30" x="199.46" y="1571.57" width="24.8" height="195.77" transform="translate(1881.31 1457.6) rotate(90)"/><rect class="cls-30" x="199.46" y="1616.9" width="24.8" height="195.77" transform="translate(1926.64 1502.93) rotate(90)"/><rect class="cls-30" x="199.46" y="1662.23" width="24.8" height="195.77" transform="translate(1971.97 1548.26) rotate(90)"/><rect class="cls-5" x="279.95" y="1251.7" width="29.79" height="586.16"/><rect class="cls-10" x="113.97" y="1251.7" width="29.79" height="586.16"/><rect class="cls-2" x="728.02" y="1395.7" width="93.33" height="442.17"/><rect class="cls-2" x="728.02" y="1513.45" width="93.33" height="206.65"/><rect class="cls-5" x="803.46" y="1395.7" width="17.88" height="442.17"/><rect class="cls-10" x="728.02" y="1395.7" width="17.89" height="442.17"/><rect class="cls-2" x="432.23" y="1251.7" width="195.77" height="586.16"/><rect class="cls-2" x="517.71" y="1693.08" width="24.8" height="195.77" transform="translate(2321.08 1260.85) rotate(90)"/><rect class="cls-12" x="517.71" y="1647.08" width="24.8" height="195.77" transform="translate(2275.08 1214.85) rotate(90)"/><rect class="cls-20" x="517.71" y="1601.08" width="24.8" height="195.77" transform="translate(2229.08 1168.85) rotate(90)"/><rect class="cls-12" x="517.71" y="1241.73" width="24.8" height="195.77" transform="translate(1869.72 809.5) rotate(90)"/><rect class="cls-5" x="598.21" y="1251.7" width="29.79" height="586.16"/><rect class="cls-10" x="432.23" y="1251.7" width="29.79" height="586.16"/><circle class="cls-20" cx="530.11" cy="1455.98" r="47"/><rect class="cls-2" x="2620.88" y="3106.49" width="75.44" height="743.71"/><rect class="cls-3" x="2650.09" y="3101.58" width="17.01" height="75.44" transform="translate(5797.9 480.7) rotate(90)"/><rect class="cls-4" x="2680.06" y="3106.49" width="16.26" height="743.71"/><rect class="cls-5" x="2620.88" y="3106.49" width="16.26" height="743.71"/><rect class="cls-2" x="1171.61" y="3106.49" width="75.44" height="743.71"/><rect class="cls-3" x="1200.83" y="3101.58" width="17.01" height="75.44" transform="translate(4348.64 1929.97) rotate(90)"/><rect class="cls-4" x="1230.79" y="3106.49" width="16.26" height="743.71"/><rect class="cls-5" x="1171.61" y="3106.49" width="16.26" height="743.71"/><rect class="cls-2" x="1263.39" y="3106.49" width="50.61" height="743.71"/><rect class="cls-3" x="1280.19" y="3114" width="17.01" height="50.61" transform="translate(4427.99 1850.61) rotate(90)"/><rect class="cls-3" x="1280.19" y="3788.85" width="17.01" height="50.61" transform="translate(5102.84 2525.46) rotate(90)"/><rect class="cls-4" x="1303.09" y="3106.49" width="10.91" height="743.71"/><rect class="cls-5" x="1263.39" y="3106.49" width="10.91" height="743.71"/><path class="cls-2" d="M622.07,3842.2V3148.91c0-4.42,5-8,11.13-8h0c6.15,0,11.13,3.58,11.13,8V3842.2c0,4.42-5,8-11.13,8h0C627.05,3850.2,622.07,3846.62,622.07,3842.2Z"/><path class="cls-2" d="M731.23,3842.2V3148.91c0-4.42,5-8,11.13-8s11.13,3.58,11.13,8V3842.2c0,4.42-5,8-11.13,8S731.23,3846.62,731.23,3842.2Z"/><rect class="cls-6" x="644.33" y="3164.98" width="86.9" height="661.15"/><rect class="cls-7" x="654.4" y="3164.98" width="5.88" height="661.15"/><rect class="cls-7" x="669.62" y="3164.98" width="5.88" height="661.15"/><rect class="cls-7" x="684.84" y="3164.98" width="5.88" height="661.15"/><rect class="cls-7" x="700.05" y="3164.98" width="5.88" height="661.15"/><rect class="cls-7" x="715.27" y="3164.98" width="5.88" height="661.15"/><path class="cls-16" d="M2126.94,3841.89V3121.55c0-4.59,4.1-8.31,9.16-8.31h0c5.06,0,9.17,3.72,9.17,8.31v720.34c0,4.59-4.11,8.31-9.17,8.31h0C2131,3850.2,2126.94,3846.48,2126.94,3841.89Z"/><path class="cls-16" d="M2311.07,3841.89V3121.55c0-4.59,4.1-8.31,9.16-8.31s9.16,3.72,9.16,8.31v720.34c0,4.59-4.1,8.31-9.16,8.31S2311.07,3846.48,2311.07,3841.89Z"/><rect class="cls-6" x="2145.27" y="3138.25" width="165.8" height="686.94"/><rect class="cls-7" x="2151.13" y="3138.25" width="4.84" height="686.94"/><rect class="cls-7" x="2163.66" y="3138.25" width="4.84" height="686.94"/><rect class="cls-7" x="2176.18" y="3138.25" width="4.84" height="686.94"/><rect class="cls-7" x="2188.7" y="3138.25" width="4.84" height="686.94"/><rect class="cls-7" x="2201.23" y="3138.25" width="4.84" height="686.94"/><rect class="cls-7" x="2213.75" y="3138.25" width="4.84" height="686.94"/><rect class="cls-7" x="2226.27" y="3138.25" width="4.84" height="686.94"/><rect class="cls-7" x="2238.8" y="3138.25" width="4.84" height="686.94"/><rect class="cls-7" x="2251.32" y="3138.25" width="4.84" height="686.94"/><rect class="cls-7" x="2263.84" y="3138.25" width="4.84" height="686.94"/><rect class="cls-7" x="2276.36" y="3138.25" width="4.84" height="686.94"/><rect class="cls-7" x="2288.89" y="3138.25" width="4.84" height="686.94"/><rect class="cls-7" x="2301.41" y="3138.25" width="4.84" height="686.94"/><path class="cls-11" d="M925.81,3843.74V3283.33c0-3.58,4.65-6.47,10.38-6.47h0c5.74,0,10.38,2.89,10.38,6.47v560.41c0,3.57-4.64,6.46-10.38,6.46h0C930.46,3850.2,925.81,3847.31,925.81,3843.74Z"/><path class="cls-11" d="M1134.49,3843.74V3283.33c0-3.58,4.65-6.47,10.39-6.47s10.38,2.89,10.38,6.47v560.41c0,3.57-4.65,6.46-10.38,6.46S1134.49,3847.31,1134.49,3843.74Z"/><rect class="cls-6" x="946.57" y="3296.32" width="187.92" height="534.43"/><rect class="cls-7" x="953.22" y="3296.32" width="5.49" height="534.43"/><rect class="cls-7" x="967.42" y="3296.32" width="5.49" height="534.43"/><rect class="cls-7" x="981.61" y="3296.32" width="5.49" height="534.43"/><rect class="cls-7" x="995.8" y="3296.32" width="5.49" height="534.43"/><rect class="cls-7" x="1010" y="3296.32" width="5.49" height="534.43"/><rect class="cls-7" x="1024.19" y="3296.32" width="5.49" height="534.43"/><rect class="cls-7" x="1038.38" y="3296.32" width="5.49" height="534.43"/><rect class="cls-7" x="1052.58" y="3296.32" width="5.49" height="534.43"/><rect class="cls-7" x="1066.77" y="3296.32" width="5.49" height="534.43"/><rect class="cls-7" x="1080.96" y="3296.32" width="5.49" height="534.43"/><rect class="cls-7" x="1095.16" y="3296.32" width="5.49" height="534.43"/><rect class="cls-7" x="1109.35" y="3296.32" width="5.49" height="534.43"/><rect class="cls-7" x="1123.54" y="3296.32" width="5.49" height="534.43"/><path class="cls-31" d="M812,4848.08V4129.71c0-4.57,4.65-8.28,10.38-8.28h0c5.74,0,10.39,3.71,10.39,8.28v718.37c0,4.58-4.65,8.29-10.39,8.29h0C816.67,4856.37,812,4852.66,812,4848.08Z"/><path class="cls-31" d="M1020.71,4848.08V4129.71c0-4.57,4.64-8.28,10.38-8.28s10.38,3.71,10.38,8.28v718.37c0,4.58-4.65,8.29-10.38,8.29S1020.71,4852.66,1020.71,4848.08Z"/><rect class="cls-6" x="832.79" y="4146.37" width="187.92" height="685.06"/><rect class="cls-7" x="839.44" y="4146.37" width="5.49" height="685.06"/><rect class="cls-7" x="853.63" y="4146.37" width="5.49" height="685.06"/><rect class="cls-7" x="867.82" y="4146.37" width="5.49" height="685.06"/><rect class="cls-7" x="882.02" y="4146.37" width="5.49" height="685.06"/><rect class="cls-7" x="896.21" y="4146.37" width="5.49" height="685.06"/><rect class="cls-7" x="910.4" y="4146.37" width="5.49" height="685.06"/><rect class="cls-7" x="924.6" y="4146.37" width="5.49" height="685.06"/><rect class="cls-7" x="938.79" y="4146.37" width="5.49" height="685.06"/><rect class="cls-7" x="952.98" y="4146.37" width="5.49" height="685.06"/><rect class="cls-7" x="967.18" y="4146.37" width="5.49" height="685.06"/><rect class="cls-7" x="981.37" y="4146.37" width="5.49" height="685.06"/><rect class="cls-7" x="995.56" y="4146.37" width="5.49" height="685.06"/><rect class="cls-7" x="1009.76" y="4146.37" width="5.49" height="685.06"/><path class="cls-8" d="M376.28,3843.57V3268.4c0-3.66,4.65-6.64,10.38-6.64h0c5.74,0,10.39,3,10.39,6.64v575.17c0,3.66-4.65,6.63-10.39,6.63h0C380.93,3850.2,376.28,3847.23,376.28,3843.57Z"/><path class="cls-8" d="M585,3843.57V3268.4c0-3.66,4.65-6.64,10.38-6.64s10.38,3,10.38,6.64v575.17c0,3.66-4.65,6.63-10.38,6.63S585,3847.23,585,3843.57Z"/><rect class="cls-6" x="397.05" y="3281.73" width="187.92" height="548.5"/><rect class="cls-7" x="403.7" y="3281.73" width="5.49" height="548.5"/><rect class="cls-7" x="417.89" y="3281.73" width="5.49" height="548.5"/><rect class="cls-7" x="432.08" y="3281.73" width="5.49" height="548.5"/><rect class="cls-7" x="446.28" y="3281.73" width="5.49" height="548.5"/><rect class="cls-7" x="460.47" y="3281.73" width="5.49" height="548.5"/><rect class="cls-7" x="474.66" y="3281.73" width="5.49" height="548.5"/><rect class="cls-7" x="488.86" y="3281.73" width="5.49" height="548.5"/><rect class="cls-7" x="503.05" y="3281.73" width="5.49" height="548.5"/><rect class="cls-7" x="517.24" y="3281.73" width="5.49" height="548.5"/><rect class="cls-7" x="531.44" y="3281.73" width="5.49" height="548.5"/><rect class="cls-7" x="545.63" y="3281.73" width="5.49" height="548.5"/><rect class="cls-7" x="559.82" y="3281.73" width="5.49" height="548.5"/><rect class="cls-7" x="574.02" y="3281.73" width="5.49" height="548.5"/><path class="cls-2" d="M2712.8,3842.57V3180.88a7.51,7.51,0,0,1,7.39-7.63h0a7.52,7.52,0,0,1,7.39,7.63v661.69a7.52,7.52,0,0,1-7.39,7.63h0A7.51,7.51,0,0,1,2712.8,3842.57Z"/><path class="cls-2" d="M2861.33,3842.57V3180.88a7.39,7.39,0,1,1,14.78,0v661.69a7.39,7.39,0,1,1-14.78,0Z"/><rect class="cls-6" x="2727.58" y="3196.22" width="133.75" height="631"/><rect class="cls-7" x="2732.31" y="3196.22" width="3.9" height="631"/><rect class="cls-7" x="2742.41" y="3196.22" width="3.9" height="631"/><rect class="cls-7" x="2752.52" y="3196.22" width="3.9" height="631"/><rect class="cls-7" x="2762.62" y="3196.22" width="3.9" height="631"/><rect class="cls-7" x="2772.72" y="3196.22" width="3.9" height="631"/><rect class="cls-7" x="2782.82" y="3196.22" width="3.9" height="631"/><rect class="cls-7" x="2792.92" y="3196.22" width="3.9" height="631"/><rect class="cls-7" x="2803.03" y="3196.22" width="3.9" height="631"/><rect class="cls-7" x="2813.13" y="3196.22" width="3.9" height="631"/><rect class="cls-7" x="2823.23" y="3196.22" width="3.9" height="631"/><rect class="cls-7" x="2833.33" y="3196.22" width="3.9" height="631"/><rect class="cls-7" x="2843.44" y="3196.22" width="3.9" height="631"/><rect class="cls-7" x="2853.54" y="3196.22" width="3.9" height="631"/><rect class="cls-2" x="2501.59" y="3191.22" width="102.95" height="658.98"/><rect class="cls-2" x="2544.74" y="3342.73" width="16.64" height="102.95" transform="translate(-841.14 5947.27) rotate(-90)"/><rect class="cls-2" x="2501.1" y="3241.1" width="103.92" height="102.95" transform="translate(-739.51 5845.63) rotate(-90)"/><rect class="cls-5" x="2501.59" y="3191.22" width="19.73" height="658.98"/><rect class="cls-10" x="2584.81" y="3191.22" width="19.73" height="658.98"/><rect class="cls-2" x="2345.75" y="3133.73" width="139.51" height="716.47"/><rect class="cls-9" x="2400.35" y="3171.42" width="30.32" height="139.51" transform="translate(5656.68 825.67) rotate(90)"/><rect class="cls-9" x="2400.35" y="3231.52" width="30.32" height="139.51" transform="translate(5716.78 885.78) rotate(90)"/><rect class="cls-5" x="2345.75" y="3133.73" width="21.23" height="716.47"/><rect class="cls-10" x="2464.03" y="3133.73" width="21.23" height="716.47"/><rect class="cls-2" x="388.22" y="4163.13" width="105.61" height="693.24"/><rect class="cls-9" x="426.36" y="4214.29" width="29.33" height="105.61" transform="translate(4708.11 3826.07) rotate(90)"/><rect class="cls-9" x="426.36" y="4272.44" width="29.33" height="105.61" transform="translate(4766.27 3884.22) rotate(90)"/><rect class="cls-9" x="426.36" y="4710.44" width="29.33" height="105.61" transform="translate(5204.27 4322.22) rotate(90)"/><rect class="cls-5" x="388.22" y="4163.13" width="16.07" height="693.24"/><rect class="cls-10" x="477.75" y="4163.13" width="16.07" height="693.24"/><rect class="cls-2" x="491.8" y="3432.52" width="695.84" height="139.51" transform="translate(-2662.56 4342) rotate(-90)"/><rect class="cls-17" x="520.8" y="3466.26" width="637.84" height="72.04" transform="translate(4342 2662.56) rotate(90)"/><rect class="cls-5" x="432.65" y="3491.67" width="695.84" height="21.23" transform="translate(4282.86 2721.71) rotate(90)"/><rect class="cls-10" x="550.94" y="3491.67" width="695.84" height="21.23" transform="translate(4401.14 2603.42) rotate(90)"/><circle class="cls-2" cx="839.72" cy="3324.26" r="30"/><rect class="cls-2" x="692.47" y="4246.78" width="103.22" height="609.59"/><rect class="cls-2" x="692.47" y="4745.88" width="103.22" height="38"/><rect class="cls-2" x="692.47" y="4397.88" width="103.22" height="38"/><rect class="cls-2" x="692.47" y="4301.88" width="103.22" height="38"/><rect class="cls-18" x="692.47" y="4339.88" width="103.22" height="58"/><rect class="cls-5" x="775.91" y="4246.78" width="19.78" height="609.59"/><rect class="cls-10" x="692.47" y="4246.78" width="19.78" height="609.59"/><rect class="cls-2" x="510.16" y="4205.05" width="165.98" height="651.32"/><rect class="cls-24" x="579.37" y="4227.8" width="27.56" height="165.98" transform="translate(4903.94 3717.64) rotate(90)"/><rect class="cls-24" x="579.37" y="4667.64" width="27.56" height="165.98" transform="translate(5343.78 4157.49) rotate(90)"/><rect class="cls-5" x="510.16" y="4205.05" width="25.26" height="651.32"/><rect class="cls-10" x="650.88" y="4205.05" width="25.26" height="651.32"/><path class="cls-24" d="M543.15,4530.71l50,50,50-50-50-50Zm50,38.69-38.69-38.69L593.15,4492l38.68,38.69Z"/><rect class="cls-3" x="296.44" y="4112.66" width="75.44" height="743.71"/><rect class="cls-19" x="325.49" y="4126.53" width="17.01" height="37.89" transform="translate(4479.47 3811.48) rotate(90)"/><rect class="cls-19" x="325.49" y="4162.88" width="17.01" height="37.89" transform="translate(4515.82 3847.83) rotate(90)"/><rect class="cls-19" x="325.49" y="4199.23" width="17.01" height="37.89" transform="translate(4552.17 3884.18) rotate(90)"/><rect class="cls-4" x="355.62" y="4112.65" width="16.26" height="743.71"/><rect class="cls-5" x="296.44" y="4112.65" width="16.26" height="743.71"/><circle class="cls-19" cx="334.16" cy="4801.32" r="12.39" transform="translate(-1094.18 205.22) rotate(-13.28)"/><rect class="cls-2" x="3069.39" y="3161.58" width="67.31" height="688.63"/><rect class="cls-3" x="3095.17" y="3158.3" width="15.75" height="67.31" transform="translate(6295 88.92) rotate(90)"/><rect class="cls-3" x="3095.17" y="3783.16" width="15.75" height="67.31" transform="translate(6919.87 713.78) rotate(90)"/><rect class="cls-4" x="3122.19" y="3161.58" width="14.51" height="688.63"/><rect class="cls-5" x="3069.39" y="3161.58" width="14.51" height="688.63"/><path class="cls-2" d="M2892.44,3843.81v-726.9c0-4.63,1.92-6.38,4.29-6.38h0c2.37,0,4.29,1.75,4.29,6.38v726.9c0,4.64-1.92,6.39-4.29,6.39h0C2894.36,3850.2,2892.44,3848.45,2892.44,3843.81Z"/><path class="cls-2" d="M2934.48,3843.81v-726.9c0-4.63,1.92-6.38,4.28-6.38s4.29,1.75,4.29,6.38v726.9c0,4.64-1.92,6.39-4.29,6.39S2934.48,3848.45,2934.48,3843.81Z"/><rect class="cls-6" x="2901.02" y="3133.77" width="33.46" height="693.2"/><rect class="cls-7" x="2904.9" y="3133.77" width="2.26" height="693.2"/><rect class="cls-7" x="2910.76" y="3133.77" width="2.26" height="693.2"/><rect class="cls-7" x="2916.61" y="3133.77" width="2.26" height="693.2"/><rect class="cls-7" x="2922.47" y="3133.77" width="2.26" height="693.2"/><rect class="cls-7" x="2928.33" y="3133.77" width="2.26" height="693.2"/><rect class="cls-2" x="2959.68" y="3408.03" width="93.33" height="442.17"/><rect class="cls-2" x="2959.68" y="3525.79" width="93.33" height="206.65"/><rect class="cls-5" x="2959.68" y="3408.03" width="17.89" height="442.17"/><rect class="cls-10" x="3035.13" y="3408.03" width="17.88" height="442.17"/><rect class="cls-12" x="3153.03" y="3264.04" width="195.77" height="586.16"/><rect class="cls-2" x="3238.52" y="3705.42" width="24.8" height="195.77" transform="translate(7054.22 552.38) rotate(90)"/><rect class="cls-2" x="3238.52" y="3659.42" width="24.8" height="195.77" transform="translate(7008.22 506.38) rotate(90)"/><rect class="cls-2" x="3238.52" y="3613.42" width="24.8" height="195.77" transform="translate(6962.22 460.38) rotate(90)"/><rect class="cls-2" x="3238.52" y="3254.06" width="24.8" height="195.77" transform="translate(6602.87 101.03) rotate(90)"/><rect class="cls-5" x="3153.03" y="3264.04" width="29.79" height="586.16"/><rect class="cls-10" x="3319.01" y="3264.04" width="29.79" height="586.16"/><circle class="cls-6" cx="3250.92" cy="3468.32" r="47"/><rect class="cls-2" x="1354.66" y="3774.76" width="743.71" height="75.44"/><rect class="cls-3" x="1378.97" y="3774.76" width="17.01" height="75.44"/><rect class="cls-4" x="1354.66" y="3774.76" width="743.71" height="16.26"/><rect class="cls-5" x="1354.66" y="3833.94" width="743.71" height="16.26"/><rect class="cls-15" x="1354.66" y="3491.3" width="743.71" height="50.61"/><rect class="cls-3" x="1378.97" y="3491.3" width="17.01" height="50.61"/><rect class="cls-3" x="2053.82" y="3491.3" width="17.01" height="50.61"/><rect class="cls-4" x="1354.66" y="3491.3" width="743.71" height="10.91"/><rect class="cls-5" x="1354.66" y="3531" width="743.71" height="10.91"/><rect class="cls-2" x="1368.28" y="3635.24" width="716.47" height="139.51"/><rect class="cls-9" x="1460.57" y="3635.24" width="30.32" height="139.51"/><rect class="cls-9" x="1520.67" y="3635.24" width="30.32" height="139.51"/><rect class="cls-5" x="1368.28" y="3753.53" width="716.47" height="21.23"/><rect class="cls-10" x="1368.28" y="3635.24" width="716.47" height="21.23"/><rect class="cls-2" x="1354.66" y="3440.7" width="743.71" height="50.61"/><rect class="cls-3" x="1378.97" y="3440.7" width="17.01" height="50.61"/><rect class="cls-3" x="2053.82" y="3440.7" width="17.01" height="50.61"/><rect class="cls-4" x="1354.66" y="3440.7" width="743.71" height="10.91"/><rect class="cls-5" x="1354.66" y="3480.39" width="743.71" height="10.91"/><rect class="cls-13" x="1437.44" y="3541.91" width="578.15" height="93.33"/><rect class="cls-8" x="1591.41" y="3541.91" width="270.21" height="93.33"/><rect class="cls-5" x="1437.44" y="3617.36" width="578.15" height="17.89"/><rect class="cls-10" x="1437.44" y="3541.91" width="578.15" height="17.89"/><circle class="cls-8" cx="1508.44" cy="3588.58" r="19.95" transform="translate(-2095.69 2117.7) rotate(-45)"/></g></g></svg>