<svg xmlns="http://www.w3.org/2000/svg" viewBox="0 0 970.58 991.92"><defs><style>.cls-1,.cls-2{opacity:0.68;}.cls-2,.cls-4{fill:#ffd673;}.cls-3{fill:#1f1f1f;}.cls-5{fill:#f9dad2;}.cls-6{fill:#80e897;}.cls-7{fill:#fff;}.cls-8{opacity:0.25;}.cls-9{fill:#c4c4c4;}.cls-10{opacity:0.16;}.cls-11{opacity:0.1;}.cls-12{opacity:0.11;}.cls-13{fill:#101316;}.cls-14{opacity:0.05;}.cls-15{fill:#223040;}</style></defs><g id="Layer_2" data-name="Layer 2"><g id="Layer_1-2" data-name="Layer 1"><g class="cls-1"><rect class="cls-2" x="366.29" y="23.1" width="495.39" height="961.72"/></g><rect class="cls-3" x="396.33" y="59.42" width="438.52" height="889.08"/><g class="cls-1"><rect class="cls-4" x="397.57" y="317.28" width="438.52" height="27.6"/></g><g class="cls-1"><rect class="cls-4" x="396.19" y="623.81" width="438.52" height="27.6"/></g><path class="cls-5" d="M416.26,401.67s17-3.45,22-6.75,10.82,1.08,3.75,5.71-.63,10,11,10.13,35.08-6.66,26,3.65-37.07,19-44.62,14.84-22.6-7.31-22.6-7.31S405.29,406.94,416.26,401.67Z"/><polygon class="cls-6" points="238.95 185.08 306.51 353.6 417.64 389.92 414.74 428.42 278.18 412.44 214.26 364.5 238.95 185.08"/><polygon class="cls-7" points="198.46 178.37 127.09 178.55 124.19 504.69 198.28 502.51 198.46 178.37"/><polygon class="cls-5" points="68.78 904.9 68.79 918.85 68.81 960.12 95.93 960.12 101.51 931.29 103.34 921.8 106.61 904.9 68.78 904.9"/><g class="cls-8"><polygon points="67.92 924.94 100.16 938.6 100.16 939.12 100.64 937.37 102.47 927.88 67.92 924.94"/></g><polygon class="cls-5" points="158.56 909.26 151.69 945.53 180.53 953.76 190.84 912.78 158.56 909.26"/><g class="cls-8"><polygon points="182.98 944.04 154.64 927.23 186 932.03 182.98 944.04"/></g><path class="cls-4" d="M159.81,567.89C145.28,695.22,114.33,925,114.33,925l-.6.22a65.88,65.88,0,0,1-10.87,2.9,68.72,68.72,0,0,1-44-6.7l-.35-432.64L167.19,488C167.44,496.87,164.46,527.13,159.81,567.89Z"/><path class="cls-4" d="M270.78,713.31c-4,43.69-72.9,216.28-72.9,216.28l-4.1,1.24c-.68.21-1.4.43-2.09.6a70.11,70.11,0,0,1-7.29,1.66c-13.94,2.51-25.74-4.76-39.21-9.58,0,0,9.68-46.72,19.31-94.89S183.81,730.87,183.81,725c0-11.64-51.92-238.6-51.92-238.6l95.92.73s6.78,39.26,18.2,85.77c4.22,17.05,8.44,35.08,12.24,52.52C266.34,662.79,272.27,697.32,270.78,713.31Z"/><polygon class="cls-9" points="99.42 950.44 144.85 984.44 57.21 984.44 66.84 948.8 99.42 950.44"/><polygon class="cls-9" points="180.18 952.08 216.43 991.68 134.96 976.26 150.19 944.83 180.18 952.08"/><path class="cls-5" d="M142.35,176.72v2.19a24.35,24.35,0,0,0,20.35,24h8.69a24.36,24.36,0,0,0,20.12-20.68l-.24-8.05-.38-13-.8-27-31.92-1.06-11.79-.39-.62,6.76-.19,2-3,32.65Z"/><g class="cls-10"><path d="M145.57,141.54a9.68,9.68,0,0,0,2.18,4.49c16.66,21.28,43.14,15.14,43.14,15.14l-.8-26.95-31.91-1.07c-6.58,1.18-11.36,3.17-12.42,6.37A4.67,4.67,0,0,0,145.57,141.54Z"/></g><g class="cls-11"><polygon points="66.61 306.78 84.95 291.75 62.33 374.8 66.61 306.78"/></g><path class="cls-6" d="M250.58,515.29l-51.34,2.79a7.13,7.13,0,0,1-7.52-7.11L191,167.65,239,185.08l19.14,321.79A8,8,0,0,1,250.58,515.29Z"/><path class="cls-6" d="M123.77,518.49H55.2a8.66,8.66,0,0,1-8.63-9.43L75.91,175.12A4.49,4.49,0,0,1,80.09,171l63-4.11L132.44,510.09A8.67,8.67,0,0,1,123.77,518.49Z"/><g class="cls-12"><polyline class="cls-13" points="82.06 326.73 76.25 359.41 156.15 377.57 42.11 368.86"/></g><rect class="cls-4" x="170.67" y="293.31" width="111.14" height="159.08"/><g class="cls-14"><path class="cls-13" d="M170.67,293.31V452.39H281.81V431c-10.46.21-21.71.54-31.23,1.07-26.15,1.45-40.68-24-55.21-57.38C184.2,349,183.76,310,184.16,293.31Z"/></g><g class="cls-12"><polygon class="cls-13" points="156.58 595.66 162.68 565.7 169.02 651.89 156.58 595.66"/></g><path class="cls-5" d="M114.55,86.58c-2.21,36.87,21.46,68.29,52.87,70.17s54.63-27.66,56.84-64.54-17.44-67.11-48.85-69S116.76,49.71,114.55,86.58Z"/><path class="cls-15" d="M140.63,113.94l11.19-48.37s70.27,17.52,82.78-14.15S244.32,0,244.32,0,179.9,7.1,155.58,5.75c-34.84-1.94-38.2,25.3-38.2,25.3s-17.5,5.85-17.1,35.41C100.69,96.36,112.36,133.3,140.63,113.94Z"/><path class="cls-5" d="M110.08,105c-.65,10.77,6.89,20,16.83,20.58s18.51-7.65,19.16-18.42-6.89-20-16.83-20.59S110.72,94.23,110.08,105Z"/><path class="cls-5" d="M151.79,401.54s24.7,10.9,40,4.36,28.33-30.51,8-29.78-29.06,0-29.06,0V364.27L158.2,378.19Z"/><path class="cls-6" d="M77.52,174.59a1.51,1.51,0,0,0-2.76-.31C62.88,194.92-5.88,317.46.41,378.43c5.38,52.17,155.74,26.74,155.74,26.74L158.37,376,68.88,362.17l38.87-90.76Z"/><g class="cls-12"><polygon class="cls-13" points="156.15 405.18 53.31 432.32 55.26 410.16 156.15 405.18"/></g><g class="cls-11"><path class="cls-7" d="M208.77,303.93a9.9,9.9,0,0,0-4.75,8.54c.08,14.4,1.84,73,28.4,90.53,32,21.06,41.4-16.71,39.22-28.33s-27.6-29.06-29-43.59C241.27,317.89,224.37,294.51,208.77,303.93Z"/></g><rect class="cls-6" x="505.75" y="175.64" width="39.95" height="141.64"/><rect class="cls-6" x="622.7" y="175.64" width="39.95" height="141.64"/><rect class="cls-6" x="564.59" y="172.73" width="39.95" height="141.64" transform="translate(-44.82 173.52) rotate(-16.27)"/><rect class="cls-6" x="450.55" y="482.17" width="39.95" height="141.64"/><rect class="cls-6" x="567.5" y="482.17" width="39.95" height="141.64"/><rect class="cls-6" x="509.39" y="479.27" width="39.95" height="141.64" transform="translate(-132.91 170.33) rotate(-16.27)"/><rect class="cls-6" x="506.48" y="806.86" width="39.95" height="141.64"/><rect class="cls-6" x="623.43" y="806.86" width="39.95" height="141.64"/><rect class="cls-6" x="565.32" y="803.96" width="39.95" height="141.64" transform="translate(-221.63 199) rotate(-16.27)"/><path class="cls-4" d="M934.5,859.72V917.2a74.72,74.72,0,1,1-149.44,0V859.72Z"/><g class="cls-14"><path d="M934.5,859.72V917.2a74.73,74.73,0,0,1-140.74,35c27.1,16,67.36,20.79,85.18,11,21.5-11.86,9.72-75.36,3.3-103.46Z"/></g><g class="cls-14"><path class="cls-7" d="M800.25,910.43c1.85,14.27,10.4,26.41,22.23,32.41,13,6.56,31.88,12.29,43.41-1.71,18.85-22.88-15.26-70.63-48.48-59.69C801.5,886.68,798.77,899,800.25,910.43Z"/></g><path class="cls-4" d="M861.7,864.36c-.83-11.47-1.5-23.25,3.36-34,4.13-9.16,11.06-16.67,18.26-23.51,1-1-.52-2.51-1.54-1.54-7.62,7.24-14.91,15.24-19.07,25-4.62,10.83-4,22.54-3.19,34,.1,1.39,2.28,1.41,2.18,0Z"/><path class="cls-4" d="M853.9,865.09l-6.23-68.4c-1-10.54-1.09-21.59-3.34-32-2-9.21-7.86-16.19-14-23-.95-1-2.48.51-1.54,1.55,7,7.72,12.59,15.17,14.09,25.74s2,21.34,3,32q2.93,32.06,5.84,64.12c.13,1.38,2.31,1.4,2.18,0Z"/><path class="cls-4" d="M859.61,867.27A421.26,421.26,0,0,1,858,771.58c1.52-15.66,3-32.3,8.52-47.15,4.71-12.67,13.48-23.07,22.24-33.13,9-10.37,18.25-20.79,23.66-33.59.54-1.27-1.33-2.39-1.88-1.1-10.09,23.85-33.25,38.82-44,62.23-6.34,13.74-8,29.45-9.78,44.33a416.56,416.56,0,0,0-2.87,48.55,421.32,421.32,0,0,0,3.64,55.55c.18,1.37,2.36,1.39,2.17,0Z"/><path class="cls-6" d="M882.88,805.55c-1.16-7.86-2.23-16.32,1.38-23.41,1.78-3.5,4.59-6.4,6.28-9.94,2.24-4.71,2.34-10.22,4.58-14.94a18.2,18.2,0,0,1,13.43-10c4.69-.71,9.58.44,14.16-.79A30.16,30.16,0,0,0,930,743c6.36-3.78,13.11-7.27,20.45-8.22,3.68-.48,7.6-.26,10.84,1.54a19.12,19.12,0,0,1,5.88,5.66c2.22,3,4.13,6.81,3.19,10.46-.54,2.08-1.94,3.82-3.11,5.62a30.28,30.28,0,0,0-4.75,13.28c-.55,5.05.11,10.46-2.28,14.94s-7.35,7-12.18,8.68-10,2.84-14.09,5.85c-5.2,3.81-8.19,10.11-13.54,13.71-4.21,2.84-9.45,3.69-14.52,3.91a30,30,0,0,1-12.15-1.51c-3.83-1.47-7.28-4.38-8.61-8.27-.56-1.62-1-3.68-2.66-4.15"/><path class="cls-6" d="M830.28,741.46a75.61,75.61,0,0,0,8.8-33.1c.08-2.66,0-5.44-1.29-7.78-1.77-3.25-5.4-4.92-8.72-6.55-7.36-3.59-14.7-8.32-18.38-15.64-2.44-4.85-3-10.38-4.42-15.64s-3.9-10.66-8.7-13.22c-2.59-1.39-5.59-1.78-8.51-2.16l-31.84-4.08a28.22,28.22,0,0,0-7.78-.27c-6.63,1-11.85,6.94-13.24,13.5s.56,13.5,4,19.22c4,6.57,10.23,12.4,10.85,20.08.31,3.81-.84,7.56-1.82,11.25-1.74,6.6-2.77,14.29,1.39,19.7,2.82,3.68,7.45,5.47,10.78,8.71,3.85,3.75,5.74,9.23,9.79,12.77,6.18,5.41,15.34,4.82,23.54,5.11a85.67,85.67,0,0,1,17.52,2.43c3.31.81,6.84,1.82,10.06.68a10.81,10.81,0,0,0,6-6.39,31.91,31.91,0,0,0,1.71-8.86"/><path class="cls-6" d="M912.82,655.89c11.52,1,23.51-.65,33.55-6.39s17.84-15.93,19-27.43a17.35,17.35,0,0,0-1.24-9.33c-1.46-3-4.09-5.27-6-8a19.7,19.7,0,0,1-3.5-11.68c.14-5,2.22-9.8,3.86-14.58s2.85-10,1.25-14.82c-2.6-7.81-11.59-11.69-15.48-18.94-2.74-5.09-3.27-12.12-8.47-14.66-2.79-1.36-6.14-.88-9.06.17a26.23,26.23,0,0,0-16.91,23.23c-.1,3.26.37,6.72-1.13,9.62a14.82,14.82,0,0,1-3.55,4.07c-5.73,5.06-11.81,9.8-16.75,15.64s-8.73,13-8.83,20.68c-.07,4.68,1.24,9.29,1.29,14,0,4.19-.91,8.41-.19,12.54.94,5.34,4.54,9.79,8.24,13.76a48.67,48.67,0,0,0,10.81,9.2,21,21,0,0,0,13.65,3"/></g></g></svg>