<svg xmlns="http://www.w3.org/2000/svg" width="10" height="10" viewBox="0 0 10 10"><g id="Layer_2" data-name="Layer 2"><g id="Layer_1-2" data-name="Layer 1"><rect width="10" height="10" rx="1" fill="#333"/><path d="M7,6.51A1.91,1.91,0,0,1,5,8.32v-.6A1.27,1.27,0,0,0,6.29,6.51,1.27,1.27,0,0,0,5,5.3V4.7A1.27,1.27,0,0,0,6.29,3.49,1.27,1.27,0,0,0,5,2.28v-.6A1.91,1.91,0,0,1,7,3.49,1.77,1.77,0,0,1,6.07,5,1.77,1.77,0,0,1,7,6.51Z" fill="#90cc91"/><path d="M4.69,8.32H4.07V6.23a1.36,1.36,0,0,1-.88-.62A1.36,1.36,0,0,1,3,4.93a1.24,1.24,0,0,1,.33-.81,1.16,1.16,0,0,1,.7-.35V1.68h.62V4a.28.28,0,0,1-.31.24.69.69,0,0,0-.55.24.83.83,0,0,0-.17.46.85.85,0,0,0,.12.54.77.77,0,0,0,.63.35c.16,0,.28.12.28.24Z" fill="#ffd676"/></g></g></svg>