<?xml version="1.0" encoding="utf-8"?>
<!-- Generator: Adobe Illustrator 25.2.0, SVG Export Plug-In . SVG Version: 6.00 Build 0)  -->
<svg version="1.1" id="Layer_1" xmlns="http://www.w3.org/2000/svg" xmlns:xlink="http://www.w3.org/1999/xlink" x="0px" y="0px"
	 viewBox="0 0 10 10" style="enable-background:new 0 0 10 10;" xml:space="preserve">
<style type="text/css">
	.st0{fill:#333333;}
	.st1{fill:#90CC91;}
	.st2{fill:#FFD676;}
</style>
<g id="Layer_2_1_">
	<g id="Layer_1-2">
		<path class="st0" d="M1,0h8c0.6,0,1,0.4,1,1v8c0,0.6-0.4,1-1,1H1c-0.6,0-1-0.4-1-1V1C0,0.4,0.4,0,1,0z"/>
		<path class="st1" d="M7.5,6.9C7.4,8.2,6.3,9.2,5,9.2V8.4c0.9,0,1.6-0.7,1.6-1.5C6.6,6,5.9,5.4,5,5.4V4.6c0.9,0,1.6-0.7,1.6-1.5
			c0-0.9-0.8-1.5-1.6-1.5V0.8c1.3-0.1,2.4,1,2.5,2.3C7.5,3.9,7,4.6,6.3,5C7,5.4,7.5,6.1,7.5,6.9z"/>
		<path class="st2" d="M4.6,9.2H3.8V6.5C3.4,6.4,3,6.2,2.7,5.8C2.6,5.5,2.5,5.2,2.5,4.9c0-0.4,0.2-0.7,0.4-1
			c0.2-0.2,0.5-0.4,0.9-0.4V0.8h0.8v2.9c0,0.2-0.2,0.3-0.4,0.3C3.9,4,3.7,4.1,3.5,4.3C3.4,4.5,3.3,4.7,3.3,4.9c0,0.2,0,0.5,0.2,0.7
			C3.6,5.9,3.9,6,4.2,6c0.2,0,0.4,0.2,0.4,0.3L4.6,9.2z"/>
	</g>
</g>
</svg>
