<svg xmlns="http://www.w3.org/2000/svg" viewBox="0 0 3470.78 1062.1"><defs><style>.cls-1,.cls-2{fill:#ffd673;}.cls-1{opacity:0.68;}.cls-3{fill:#80e897;}.cls-4,.cls-9{fill:#231f20;}.cls-4{opacity:0.3;}.cls-5,.cls-7{fill:#fff;}.cls-5{opacity:0.1;}.cls-6{fill:#f4d38c;}.cls-8{fill:#dadada;}.cls-9{opacity:0.15;}.cls-10{fill:#c4c4c4;}</style></defs><g id="Layer_2" data-name="Layer 2"><g id="Layer_1-2" data-name="Layer 1"><path class="cls-1" d="M3429.66,957.66H41.12C18.41,957.66,0,981,0,1009.88H0c0,28.84,18.41,52.22,41.12,52.22H3429.66c22.71,0,41.12-23.38,41.12-52.22h0C3470.78,981,3452.37,957.66,3429.66,957.66Z"/><rect class="cls-2" x="161.73" y="447.67" width="957.66" height="97.15" transform="translate(-64.11 896.26) rotate(-67.35)"/><rect class="cls-3" x="797.76" y="44.78" width="21.91" height="97.15" transform="translate(1206.33 -617.02) rotate(112.65)"/><rect class="cls-4" x="126.57" y="471.1" width="957.66" height="20.94" transform="translate(-72.19 854.79) rotate(-67.35)"/><rect class="cls-5" x="196.9" y="500.45" width="957.66" height="20.94" transform="translate(-56.03 937.73) rotate(-67.35)"/><rect class="cls-3" x="2264.23" width="97.15" height="957.66"/><rect class="cls-6" x="2301.85" y="-6.32" width="21.91" height="97.15" transform="translate(2355.06 -2270.55) rotate(90)"/><rect class="cls-4" x="2264.23" width="20.94" height="957.66"/><rect class="cls-5" x="2340.43" width="20.94" height="957.66"/><rect class="cls-2" x="2178.03" width="65.16" height="957.66"/><rect class="cls-3" x="2199.66" y="9.67" width="21.91" height="65.16" transform="translate(2252.87 -2168.36) rotate(90)"/><rect class="cls-3" x="2199.66" y="878.66" width="21.91" height="65.16" transform="translate(3121.86 -1299.37) rotate(90)"/><rect class="cls-4" x="2178.03" width="14.05" height="957.66"/><rect class="cls-5" x="2229.15" width="14.05" height="957.66"/><path class="cls-6" d="M3069,947.36V54.63c0-5.69-6.42-10.3-14.33-10.3h0c-7.92,0-14.34,4.61-14.34,10.3V947.36c0,5.69,6.42,10.3,14.34,10.3h0C3062.59,957.66,3069,953.05,3069,947.36Z"/><path class="cls-6" d="M2928.45,947.36V54.63c0-5.69-6.42-10.3-14.34-10.3s-14.33,4.61-14.33,10.3V947.36c0,5.69,6.41,10.3,14.33,10.3S2928.45,953.05,2928.45,947.36Z"/><rect class="cls-7" x="2928.44" y="75.33" width="111.9" height="851.34"/><rect class="cls-8" x="3019.8" y="75.33" width="7.57" height="851.34"/><rect class="cls-8" x="3000.21" y="75.33" width="7.57" height="851.34"/><rect class="cls-8" x="2980.61" y="75.33" width="7.57" height="851.34"/><rect class="cls-8" x="2961.02" y="75.33" width="7.57" height="851.34"/><rect class="cls-8" x="2941.42" y="75.33" width="7.57" height="851.34"/><path class="cls-3" d="M1131.22,947V19.4c0-5.91-5.28-10.7-11.79-10.7h0c-6.52,0-11.8,4.79-11.8,10.7V947c0,5.91,5.28,10.7,11.8,10.7h0C1125.94,957.66,1131.22,952.87,1131.22,947Z"/><path class="cls-3" d="M894.13,947V19.4c0-5.91-5.28-10.7-11.8-10.7s-11.8,4.79-11.8,10.7V947c0,5.91,5.29,10.7,11.8,10.7S894.13,952.87,894.13,947Z"/><rect class="cls-7" x="894.13" y="40.91" width="213.5" height="884.55"/><rect class="cls-8" x="1093.84" y="40.91" width="6.23" height="884.55"/><rect class="cls-8" x="1077.72" y="40.91" width="6.23" height="884.55"/><rect class="cls-8" x="1061.59" y="40.91" width="6.23" height="884.55"/><rect class="cls-8" x="1045.47" y="40.91" width="6.23" height="884.55"/><rect class="cls-8" x="1029.34" y="40.91" width="6.23" height="884.55"/><rect class="cls-8" x="1013.21" y="40.91" width="6.23" height="884.55"/><rect class="cls-8" x="997.09" y="40.91" width="6.23" height="884.55"/><rect class="cls-8" x="980.96" y="40.91" width="6.23" height="884.55"/><rect class="cls-8" x="964.84" y="40.91" width="6.23" height="884.55"/><rect class="cls-8" x="948.71" y="40.91" width="6.23" height="884.55"/><rect class="cls-8" x="932.59" y="40.91" width="6.23" height="884.55"/><rect class="cls-8" x="916.46" y="40.91" width="6.23" height="884.55"/><rect class="cls-8" x="900.33" y="40.91" width="6.23" height="884.55"/><path class="cls-3" d="M3385.5,949.12V208.49c0-4.72-6-8.54-13.37-8.54h0c-7.38,0-13.37,3.82-13.37,8.54V949.12c0,4.72,6,8.54,13.37,8.54h0C3379.52,957.66,3385.5,953.84,3385.5,949.12Z"/><path class="cls-3" d="M3116.78,949.12V208.49c0-4.72-6-8.54-13.37-8.54s-13.37,3.82-13.37,8.54V949.12c0,4.72,6,8.54,13.37,8.54S3116.78,953.84,3116.78,949.12Z"/><rect class="cls-7" x="3116.78" y="225.66" width="241.98" height="706.28"/><rect class="cls-8" x="3343.14" y="225.66" width="7.06" height="706.28"/><rect class="cls-8" x="3324.86" y="225.66" width="7.06" height="706.28"/><rect class="cls-8" x="3306.58" y="225.66" width="7.06" height="706.28"/><rect class="cls-8" x="3288.31" y="225.66" width="7.06" height="706.28"/><rect class="cls-8" x="3270.03" y="225.66" width="7.06" height="706.28"/><rect class="cls-8" x="3251.75" y="225.66" width="7.06" height="706.28"/><rect class="cls-8" x="3233.48" y="225.66" width="7.06" height="706.28"/><rect class="cls-8" x="3215.2" y="225.66" width="7.06" height="706.28"/><rect class="cls-8" x="3196.92" y="225.66" width="7.06" height="706.28"/><rect class="cls-8" x="3178.65" y="225.66" width="7.06" height="706.28"/><rect class="cls-8" x="3160.37" y="225.66" width="7.06" height="706.28"/><rect class="cls-8" x="3142.09" y="225.66" width="7.06" height="706.28"/><rect class="cls-8" x="3123.82" y="225.66" width="7.06" height="706.28"/><rect class="cls-2" x="2340.74" y="419.83" width="896.02" height="179.65" transform="translate(2279.09 3298.4) rotate(-90)"/><rect class="cls-3" x="2378.08" y="463.27" width="821.33" height="92.77" transform="translate(3298.4 -2279.09) rotate(90)"/><rect class="cls-5" x="2416.9" y="495.99" width="896.02" height="27.34" transform="translate(3374.56 -2355.25) rotate(90)"/><rect class="cls-9" x="2264.58" y="495.99" width="896.02" height="27.33" transform="translate(3222.25 -2202.94) rotate(90)"/><circle class="cls-3" cx="2788.75" cy="280.42" r="38.63" transform="translate(104.97 1088.55) rotate(-22.5)"/><rect class="cls-3" x="1168.01" y="859.92" width="957.66" height="97.15"/><rect class="cls-10" x="1199.32" y="859.92" width="21.91" height="97.15"/><rect class="cls-4" x="1168.01" y="936.12" width="957.66" height="20.94"/><rect class="cls-5" x="1168.01" y="859.92" width="957.66" height="20.94"/><rect class="cls-2" x="1254.37" y="727" width="784.95" height="132.91"/><rect class="cls-3" x="1347.71" y="727" width="48.93" height="132.91"/><rect class="cls-3" x="1795.82" y="727" width="48.93" height="132.91"/><rect class="cls-3" x="1919.44" y="727" width="48.93" height="132.91"/><rect class="cls-10" x="1844.75" y="727" width="74.68" height="132.91"/><rect class="cls-5" x="1254.37" y="727" width="784.95" height="25.47"/><rect class="cls-9" x="1254.37" y="834.45" width="784.95" height="25.47"/><rect class="cls-2" x="2416.18" y="74.64" width="86.68" height="886.72"/><rect class="cls-10" x="2449.38" y="70.42" width="20.28" height="86.68" transform="translate(2573.28 -2345.76) rotate(90)"/><rect class="cls-10" x="2449.38" y="875.04" width="20.28" height="86.68" transform="translate(3377.9 -1541.14) rotate(90)"/><rect class="cls-4" x="2416.18" y="74.63" width="18.68" height="886.72"/><rect class="cls-5" x="2484.17" y="74.63" width="18.68" height="886.72"/><rect class="cls-3" x="76.64" y="201.81" width="252.09" height="754.78"/><rect class="cls-2" x="186.72" y="175.88" width="31.94" height="252.08" transform="translate(504.61 99.24) rotate(90)"/><rect class="cls-2" x="186.72" y="234.26" width="31.94" height="252.08" transform="translate(562.98 157.62) rotate(90)"/><rect class="cls-2" x="186.72" y="292.63" width="31.94" height="252.08" transform="translate(621.36 215.99) rotate(90)"/><rect class="cls-2" x="186.72" y="613.69" width="31.94" height="252.08" transform="translate(942.42 537.05) rotate(90)"/><rect class="cls-2" x="186.72" y="672.07" width="31.94" height="252.08" transform="translate(1000.79 595.43) rotate(90)"/><rect class="cls-2" x="186.72" y="730.44" width="31.94" height="252.08" transform="translate(1059.17 653.8) rotate(90)"/><rect class="cls-5" x="290.37" y="201.81" width="38.36" height="754.78"/><rect class="cls-9" x="76.64" y="201.81" width="38.36" height="754.78"/><rect class="cls-2" x="2523.94" y="391.99" width="120.18" height="569.37"/><rect class="cls-7" x="2523.94" y="543.63" width="120.18" height="266.1"/><rect class="cls-5" x="2621.09" y="391.99" width="23.03" height="569.37"/><rect class="cls-9" x="2523.94" y="391.99" width="23.03" height="569.37"/></g></g></svg>