<svg xmlns="http://www.w3.org/2000/svg" viewBox="0 0 3.16 5.36"><defs><style>.cls-1{fill:#90cc91;}.cls-2{fill:#ffd676;}</style></defs><g id="Layer_2" data-name="Layer 2"><g id="Layer_1-2" data-name="Layer 1"><path class="cls-1" d="M3.16,3.9A1.54,1.54,0,0,1,1.55,5.36V4.87a1,1,0,0,0,1.07-1,1,1,0,0,0-1.07-1V2.43a1,1,0,0,0,1.07-1,1,1,0,0,0-1.07-1V0A1.54,1.54,0,0,1,3.16,1.46a1.42,1.42,0,0,1-.72,1.22A1.42,1.42,0,0,1,3.16,3.9Z"/><path class="cls-2" d="M1.33,5.36H.83V3.67a1,1,0,0,1-.83-1,1,1,0,0,1,.83-.94V0h.5V1.85c0,.11-.11.19-.25.19a.54.54,0,0,0-.44.2A.6.6,0,0,0,.5,2.6.74.74,0,0,0,.6,3a.64.64,0,0,0,.5.29c.13,0,.23.09.23.19Z"/></g></g></svg>